<svg width="43" height="43" viewBox="0 0 43 43" fill="none" xmlns="http://www.w3.org/2000/svg">
<path d="M21.4688 4.67432C18.0941 4.67432 14.7953 5.67501 11.9893 7.54987C9.18343 9.42472 6.99648 12.0895 5.70506 15.2073C4.41364 18.325 4.07575 21.7557 4.73411 25.0655C5.39247 28.3753 7.01751 31.4156 9.40375 33.8018C11.79 36.1881 14.8302 37.8131 18.14 38.4715C21.4498 39.1298 24.8805 38.7919 27.9983 37.5005C31.1161 36.2091 33.7809 34.0221 35.6557 31.2162C37.5306 28.4103 38.5313 25.1115 38.5313 21.7368C38.5226 17.2142 36.7221 12.8793 33.5242 9.68139C30.3262 6.48342 25.9913 4.68299 21.4688 4.67432ZM29.5899 18.7509L19.9758 27.9384C19.7272 28.1722 19.3983 28.3014 19.057 28.2993C18.8903 28.3017 18.7246 28.271 18.5698 28.2091C18.4149 28.1471 18.2738 28.0551 18.1547 27.9384L13.3477 23.3446C13.2143 23.2283 13.1059 23.0862 13.0289 22.9269C12.9519 22.7676 12.9079 22.5944 12.8995 22.4177C12.8911 22.2409 12.9186 22.0643 12.9802 21.8984C13.0419 21.7326 13.1364 21.5809 13.2581 21.4525C13.3799 21.3241 13.5264 21.2217 13.6887 21.1513C13.8511 21.081 14.026 21.0442 14.2029 21.0431C14.3798 21.0421 14.5552 21.0769 14.7183 21.1453C14.8815 21.2138 15.0291 21.3145 15.1524 21.4415L19.057 25.1657L27.7852 16.8478C28.0404 16.6251 28.3718 16.5097 28.7101 16.5257C29.0483 16.5417 29.3674 16.6879 29.6004 16.9336C29.8334 17.1794 29.9625 17.5057 29.9605 17.8444C29.9585 18.1831 29.8257 18.5079 29.5899 18.7509Z" fill="#4E72D1"/>
</svg>
