<svg width="43" height="43" viewBox="0 0 43 43" fill="none" xmlns="http://www.w3.org/2000/svg">
<path d="M21.4688 4.14099C18.0941 4.14099 14.7953 5.14169 11.9893 7.01654C9.18343 8.89139 6.99648 11.5562 5.70506 14.674C4.41364 17.7917 4.07575 21.2224 4.73411 24.5322C5.39247 27.842 7.01751 30.8823 9.40375 33.2685C11.79 35.6547 14.8302 37.2798 18.14 37.9381C21.4498 38.5965 24.8805 38.2586 27.9983 36.9672C31.1161 35.6758 33.7809 33.4888 35.6557 30.6829C37.5306 27.877 38.5313 24.5781 38.5313 21.2035C38.5226 16.6809 36.7221 12.346 33.5242 9.14806C30.3262 5.9501 25.9913 4.14966 21.4688 4.14099ZM28.343 20.1207L22.4367 26.6832C22.3138 26.8175 22.1642 26.9247 21.9976 26.998C21.8309 27.0714 21.6508 27.1093 21.4688 27.1093C21.2867 27.1093 21.1066 27.0714 20.94 26.998C20.7733 26.9247 20.6238 26.8175 20.5008 26.6832L14.5945 20.1207C14.3684 19.8626 14.2523 19.5261 14.2712 19.1835C14.2901 18.8408 14.4424 18.5192 14.6955 18.2875C14.9487 18.0558 15.2825 17.9325 15.6255 17.9439C15.9685 17.9554 16.2934 18.1007 16.5305 18.3488L21.4688 23.8285L26.407 18.3488C26.5222 18.2174 26.6625 18.1103 26.8196 18.0338C26.9767 17.9572 27.1475 17.9129 27.322 17.9033C27.4965 17.8937 27.6711 17.919 27.8357 17.9778C28.0003 18.0365 28.1514 18.1276 28.2803 18.2456C28.4092 18.3636 28.5133 18.5061 28.5864 18.6648C28.6595 18.8236 28.7001 18.9953 28.706 19.17C28.7118 19.3446 28.6827 19.5187 28.6204 19.6819C28.558 19.8452 28.4637 19.9944 28.343 20.1207Z" fill="#4E72D1"/>
</svg>
