<svg width="65" height="70" viewBox="0 0 65 70" fill="none" xmlns="http://www.w3.org/2000/svg">
<path d="M15.5346 62.9397C18.9751 60.55 19.8085 56.0275 19.7425 51.9497C19.7289 51.2684 19.8124 50.5527 19.5055 49.9522C19.1985 49.3518 18.472 48.9313 17.8736 49.2083C17.3782 49.4387 17.1548 50.0169 16.8731 50.5042C16.494 51.1484 15.9479 51.6684 15.2976 52.0043C14.8721 52.2226 14.3476 52.352 13.9377 52.1094C13.3704 51.7758 13.3141 50.9651 13.3296 50.2899C13.3542 49.031 13.3801 47.7701 13.4073 46.5072C13.4229 45.832 13.4345 45.1406 13.2403 44.4956C13.046 43.8507 12.6011 43.2462 11.9756 43.0562C11.35 42.8661 10.571 43.226 10.4214 43.8851C10.3935 44.1651 10.3831 44.4467 10.3903 44.7281C10.369 45.0092 10.2369 45.3165 9.97459 45.3913C9.71233 45.4661 9.45006 45.27 9.25579 45.0698C8.5875 44.3764 8.13874 43.4888 7.72106 42.6074C7.30338 41.7259 6.89735 40.8222 6.29123 40.0681C5.68511 39.314 4.84003 38.7095 3.89782 38.6408C2.95561 38.572 1.94735 39.1502 1.6948 40.0984C1.44225 41.0466 1.96872 42.0251 2.54764 42.8075C3.40681 43.968 4.42228 44.9934 5.56272 45.8522C5.78532 45.9821 5.96227 46.1825 6.06782 46.4244C6.20381 46.8772 5.7803 47.32 5.34514 47.4615C4.85169 47.6212 4.31939 47.5606 3.80457 47.6151C3.28976 47.6697 2.73026 47.8941 2.52822 48.3895C2.24847 49.0768 2.8002 49.8047 3.34804 50.2939C4.4452 51.2634 5.69356 52.0306 7.03917 52.5623C7.52096 52.7503 8.02801 52.9181 8.4146 53.2739C8.8012 53.6297 9.02655 54.2423 8.78372 54.7154C8.54088 55.1885 7.93281 55.332 7.42383 55.2269C6.91484 55.1218 6.46802 54.8327 5.98623 54.6365C5.08676 54.2726 3.91725 54.3191 3.32473 55.1137C2.93619 55.6353 2.8915 56.3712 3.07412 57.004C3.28616 57.628 3.61647 58.2014 4.04547 58.6901C5.45928 60.4878 7.30521 61.8641 9.39567 62.6789C11.4841 63.4593 13.4268 63.6898 15.5249 62.9397" fill="#EBEBEB"/>
<path d="M10.9004 50.4838C10.9306 50.3898 10.9521 50.293 10.9645 50.1947C11.0014 50.0087 11.0461 49.7357 11.0966 49.4001C11.1976 48.7269 11.3064 47.7949 11.4269 46.7719C11.5473 45.7489 11.6716 44.8109 11.7863 44.1437C11.8426 43.8081 11.8912 43.5372 11.9281 43.3532C11.9521 43.2572 11.967 43.1591 11.9728 43.0601C11.9379 43.1518 11.9106 43.2465 11.8912 43.3431C11.8426 43.5271 11.7843 43.796 11.7183 44.1295C11.5842 44.7967 11.4482 45.7267 11.3297 46.7578C11.2112 47.7888 11.1063 48.7027 11.0267 49.386C10.9859 49.7095 10.9528 49.9763 10.9276 50.1947C10.9111 50.2901 10.902 50.3868 10.9004 50.4838Z" fill="#E0E0E0"/>
<path d="M2.45703 48.727C2.48529 48.7366 2.51473 48.7421 2.54445 48.7432L2.79506 48.7694C3.01265 48.7897 3.32542 48.822 3.71396 48.8725C4.49104 48.9676 5.5537 49.1414 6.72126 49.3861C7.88883 49.6307 8.93594 49.9036 9.68583 50.122C10.0627 50.2291 10.3658 50.3241 10.5736 50.3909L10.8262 50.4717C10.8539 50.4818 10.8825 50.4886 10.9117 50.4919C10.9117 50.4919 10.8864 50.4758 10.832 50.4535L10.597 50.3605C10.391 50.2837 10.0899 50.1786 9.71496 50.0613C8.96702 49.8228 7.91991 49.5417 6.7504 49.2931C5.5809 49.0444 4.51047 48.8887 3.73144 48.8078C3.3429 48.7674 3.02624 48.7472 2.80672 48.7371H2.55417C2.5228 48.7268 2.48973 48.7234 2.45703 48.727Z" fill="#E0E0E0"/>
<path d="M14.4463 60.2062C14.4702 60.1741 14.4898 60.1387 14.5046 60.1011L14.6522 59.7877C14.7804 59.5148 14.9553 59.1165 15.1651 58.6212C15.5867 57.6285 16.1364 56.2417 16.7076 54.7031C17.2787 53.1646 17.8169 51.7757 18.2229 50.777C18.4172 50.2897 18.5862 49.8894 18.7066 49.5983C18.7591 49.4669 18.8038 49.3618 18.8368 49.2769C18.855 49.2406 18.8681 49.2018 18.8756 49.1616C18.8548 49.1961 18.836 49.2319 18.8193 49.2688L18.6717 49.5821C18.5434 49.8551 18.3686 50.2533 18.1588 50.7487C17.7372 51.7393 17.1874 53.1262 16.6163 54.6667C16.0451 56.2073 15.5051 57.5942 15.101 58.5909L14.6172 59.7716C14.5629 59.903 14.5201 60.0081 14.4871 60.093C14.4707 60.1296 14.4571 60.1674 14.4463 60.2062Z" fill="#E0E0E0"/>
<path d="M3.24805 56.3081C3.28367 56.3267 3.3207 56.3423 3.35878 56.3546L3.68515 56.4698L4.88574 56.8863C5.89789 57.2381 7.29275 57.7435 8.82943 58.3015C10.3661 58.8595 11.7668 59.3568 12.7867 59.6924C13.2976 59.8602 13.7095 59.9917 13.997 60.0786L14.3214 60.1756C14.3592 60.1889 14.3983 60.1977 14.438 60.2019C14.4024 60.1833 14.3654 60.1677 14.3273 60.1554L14.0009 60.0402L12.8003 59.6237C11.7882 59.2719 10.3933 58.7665 8.85468 58.2085C7.31606 57.6505 5.91732 57.1512 4.89934 56.8176C4.38841 56.6498 3.97656 56.5163 3.68904 56.4314L3.36461 56.3344C3.32682 56.3211 3.28772 56.3123 3.24805 56.3081Z" fill="#E0E0E0"/>
<path d="M59.7951 50.777L51.9365 54.6743L52.3393 55.554L60.1979 51.6567L59.7951 50.777Z" fill="#E0E0E0"/>
<path d="M62.3261 49.5211L60.376 50.4883L60.7788 51.368L62.729 50.4008L62.3261 49.5211Z" fill="#E0E0E0"/>
<path d="M59.6007 53.0729L52.7295 56.4805L53.1323 57.3602L60.0035 53.9525L59.6007 53.0729Z" fill="#E0E0E0"/>
<path d="M0.5 15.8052H5.58988C5.58988 15.8052 5.58988 14.5922 4.98764 14.5922C4.77237 14.5849 4.56142 14.6561 4.39118 14.7934C4.22094 14.9307 4.10209 15.1255 4.05514 15.3443C4.05514 15.3443 4.05514 13.082 2.9614 13.4136C1.92594 13.7269 1.80744 15.1765 1.80744 15.1765C1.80744 15.1765 1.61317 14.4466 1.06144 14.8571C0.90427 14.9597 0.771893 15.0986 0.674541 15.2631C0.577189 15.4275 0.51747 15.613 0.5 15.8052Z" fill="#EBEBEB"/>
<path d="M9.34698 18.1085L2.25691 24.1757C1.51851 24.8076 1.41213 25.9428 2.01931 26.7112L18.5705 47.6581C19.1777 48.4265 20.2685 48.5372 21.0069 47.9054L28.097 41.8382C28.8354 41.2063 28.9418 40.0712 28.3346 39.3027L11.7834 18.3558C11.1762 17.5874 10.0854 17.4767 9.34698 18.1085Z" fill="white"/>
<path d="M11.784 18.3611C11.7704 18.3483 11.7574 18.3348 11.7452 18.3207C11.7199 18.2964 11.6869 18.254 11.6364 18.2054C11.362 17.9358 11.0099 17.7676 10.6345 17.7271C10.2591 17.6865 9.88137 17.7758 9.55962 17.981C9.3615 18.1246 9.17145 18.2798 8.9904 18.446L2.27643 24.22C2.00727 24.4561 1.81535 24.7734 1.72728 25.1281C1.63922 25.4827 1.65936 25.8571 1.78492 26.1993C1.87549 26.4359 2.0072 26.6532 2.17346 26.8402L4.16473 29.3552L8.54941 34.9048L18.6068 47.6274C18.7166 47.7624 18.8434 47.8814 18.9837 47.9812C19.1273 48.0759 19.2829 48.1493 19.446 48.1995C19.7731 48.2961 20.1207 48.287 20.4426 48.1732C20.7592 48.0421 21.0472 47.8461 21.2896 47.5971L22.0842 46.9178L25.2003 44.2511L26.7214 42.9512C26.9721 42.7348 27.2227 42.5226 27.4713 42.3103L27.8424 41.9909C27.9673 41.8901 28.0873 41.7828 28.2018 41.6694C28.416 41.439 28.5655 41.1519 28.634 40.8393C28.7025 40.5268 28.6874 40.2006 28.5903 39.8964C28.5433 39.7474 28.478 39.6054 28.3961 39.4738C28.3106 39.3485 28.2018 39.2231 28.1105 39.0998L27.5277 38.3619L19.3256 27.9602L13.8025 20.9428L12.3047 19.0323L11.9161 18.533C11.8287 18.4197 11.7879 18.3611 11.7879 18.3611C11.7879 18.3611 11.8345 18.4157 11.9239 18.5269L12.3124 19.0182C12.6582 19.4549 13.1692 20.0937 13.8238 20.9166L19.3722 27.9137L27.5918 38.2992L28.1746 39.0371C28.2717 39.1625 28.3689 39.2818 28.464 39.4192C28.553 39.5572 28.6242 39.7068 28.6758 39.864C28.7783 40.1858 28.7945 40.5305 28.7227 40.8612C28.6508 41.1918 28.4935 41.4957 28.2678 41.7402C28.1517 41.8566 28.0298 41.9666 27.9026 42.0697L27.5315 42.3851L26.7817 43.028L25.2625 44.328L22.1425 46.9986L21.3479 47.68C21.2119 47.7911 21.0876 47.9084 20.9419 48.0176C20.7985 48.128 20.6392 48.214 20.4698 48.2723C20.1286 48.3937 19.7598 48.4036 19.413 48.3006C19.2401 48.2485 19.0752 48.1709 18.9234 48.0701C18.7739 47.964 18.6386 47.8376 18.5213 47.6941L8.4717 34.9573L4.08703 29.3996L2.10547 26.8907C1.93338 26.6973 1.79705 26.4725 1.70333 26.2276C1.61518 25.9852 1.57679 25.7262 1.59065 25.4674C1.60411 25.2168 1.66692 24.9717 1.7752 24.7474C1.88348 24.5231 2.03491 24.3243 2.22009 24.1634L8.96515 18.4137C9.15063 18.2471 9.34522 18.0918 9.54796 17.9487C9.78561 17.8008 10.0536 17.7139 10.3299 17.6949C10.6062 17.6759 10.8828 17.7255 11.1371 17.8395C11.3269 17.9255 11.5 18.0468 11.648 18.1974C11.6961 18.2494 11.7415 18.304 11.784 18.3611Z" fill="#263238"/>
<path d="M2.3008 24.0864L8.89433 32.3997L21.0945 47.7788L20.5117 48.262C20.2439 48.4839 19.903 48.5871 19.5626 48.5493C19.2223 48.5114 18.91 48.3356 18.6933 48.0599L1.61892 26.4417C1.50274 26.2942 1.41669 26.1236 1.36602 25.9403C1.31535 25.757 1.30113 25.5648 1.32422 25.3756C1.34731 25.1864 1.40723 25.0041 1.50032 24.8398C1.59341 24.6755 1.71772 24.5326 1.86564 24.42L2.3008 24.0864Z" fill="#4E72D1"/>
<path d="M17.0974 25.1477C17.1149 25.1699 15.279 26.8116 12.9944 28.813C10.7098 30.8145 8.84477 32.4218 8.82535 32.3996C8.80592 32.3773 10.6457 30.7357 12.9303 28.7322C15.2149 26.7287 17.0799 25.1255 17.0974 25.1477Z" fill="#263238"/>
<path d="M12.3698 27.5977C13.7575 26.036 13.6659 23.5993 12.1652 22.1552C10.6646 20.7111 8.32314 20.8064 6.93546 22.3681C5.54779 23.9298 5.63937 26.3665 7.14003 27.8106C8.64068 29.2547 10.9821 29.1594 12.3698 27.5977Z" fill="white"/>
<path d="M10.4497 21.2156C10.4297 21.2179 10.4095 21.2179 10.3894 21.2156L10.2146 21.1893C10.1208 21.173 10.026 21.1636 9.93097 21.161C9.80165 21.1507 9.67175 21.1507 9.54243 21.161C9.18753 21.1735 8.83648 21.2416 8.50114 21.3632C8.05554 21.5206 7.64281 21.7649 7.28501 22.0829C6.82026 22.4968 6.46248 23.0252 6.24429 23.6198C6.02609 24.2145 5.95444 24.8566 6.03585 25.4875C6.07995 25.8513 6.17758 26.2059 6.32532 26.5388C6.46673 26.8893 6.66375 27.2125 6.90813 27.495C7.41975 28.1032 8.10503 28.5249 8.86362 28.6984C9.62221 28.872 10.4143 28.7882 11.1238 28.4594C11.2927 28.3815 11.4562 28.2916 11.6133 28.1905C11.7654 28.0867 11.9101 27.9719 12.0466 27.8468C12.3144 27.6093 12.5457 27.3304 12.7323 27.0199C13.1866 26.2706 13.3768 25.3805 13.2705 24.5014C13.1642 23.6224 12.768 22.809 12.1495 22.2002C11.8937 21.944 11.6023 21.7293 11.285 21.5633C11.1702 21.5 11.0514 21.4446 10.9295 21.3976C10.8423 21.3591 10.7528 21.3266 10.6614 21.3005L10.4924 21.248C10.4728 21.2431 10.4539 21.2356 10.4361 21.2257C10.4559 21.2269 10.4756 21.231 10.4944 21.2378L10.6673 21.2803C10.7607 21.3022 10.8523 21.3319 10.9412 21.3693C11.0653 21.4123 11.1861 21.465 11.3025 21.527C11.6273 21.6883 11.9262 21.9011 12.1884 22.1577C12.5771 22.5331 12.8845 22.9902 13.0901 23.4988C13.2958 24.0074 13.395 24.5558 13.3812 25.1074C13.3592 25.8042 13.158 26.4822 12.7984 27.0705C12.609 27.3908 12.3731 27.6786 12.099 27.9236C11.9587 28.0514 11.81 28.1689 11.6541 28.2754C11.4932 28.3804 11.325 28.473 11.151 28.5524C10.4226 28.892 9.60876 28.9792 8.8292 28.8012C8.04963 28.6232 7.34558 28.1895 6.82071 27.5638C6.56899 27.2717 6.36431 26.9393 6.21458 26.5792C6.06493 26.237 5.96665 25.8729 5.92318 25.4996C5.83649 24.8089 5.92906 24.1067 6.19127 23.4658C6.40053 22.9591 6.71114 22.5046 7.10239 22.1327C7.49365 21.7607 7.95658 21.4798 8.46035 21.3086C8.80225 21.1887 9.16026 21.1259 9.52106 21.1226C9.65073 21.1167 9.78065 21.1214 9.9096 21.1368C10.0057 21.1409 10.1012 21.1538 10.1952 21.1752L10.3681 21.2095L10.4497 21.2156Z" fill="#263238"/>
<path d="M6.70608 24.6283C6.70608 24.6283 6.57786 25.1317 7.35882 25.2348L8.16893 25.346L9.22188 27.9743L9.61042 27.9965L9.63373 25.5563L11.7707 25.5886L12.3011 25.9748L12.4506 24.6142L11.8873 24.9093L9.75029 24.4828L10.1485 22.1416L9.77555 22.0547L8.22138 24.3776L7.51424 24.2462C7.51424 24.2462 6.83624 24.0097 6.70608 24.6283Z" fill="#4E72D1"/>
<path d="M21.1504 1.37238L34.7299 34.0291C34.8203 34.2461 34.8686 34.4795 34.8722 34.716C34.8758 34.9525 34.8346 35.1874 34.7508 35.4073C34.6671 35.6271 34.5426 35.8277 34.3843 35.9974C34.226 36.1672 34.0372 36.3028 33.8285 36.3965L22.2072 41.6307C21.9987 41.7247 21.7744 41.7751 21.5472 41.7788C21.3199 41.7825 21.0942 41.7396 20.8829 41.6525C20.6716 41.5654 20.4789 41.4357 20.3158 41.271C20.1527 41.1063 20.0224 40.9098 19.9323 40.6926L6.3548 8.03796C6.17285 7.5996 6.16559 7.104 6.33462 6.66007C6.50365 6.21615 6.83513 5.86022 7.25621 5.67053L18.8775 0.436328C19.2982 0.247486 19.7738 0.239976 20.1999 0.415444C20.6259 0.590912 20.9678 0.935038 21.1504 1.37238Z" fill="#455A64"/>
<path d="M16.0267 15.2088C14.8075 15.2016 13.6361 14.7144 12.748 13.845C11.8598 12.9757 11.3209 11.7888 11.2393 10.5228C11.1578 9.25681 11.5398 8.00564 12.3085 7.02077C13.0772 6.03589 14.1756 5.39034 15.383 5.21386C16.5904 5.03739 17.8172 5.34308 18.8169 6.06949C19.8166 6.79589 20.5149 7.88916 20.7717 9.12954C21.0284 10.3699 20.8244 11.6655 20.2008 12.7557C19.5771 13.846 18.58 14.6502 17.4099 15.0067C16.9608 15.1438 16.4948 15.2119 16.0267 15.2088ZM16.0422 5.38332C14.9151 5.38187 13.8264 5.80911 12.9808 6.58465C12.1352 7.36019 11.5911 8.43057 11.4508 9.59441C11.3105 10.7582 11.5838 11.9353 12.2191 12.9042C12.8545 13.873 13.8081 14.5668 14.9007 14.8551C15.9932 15.1434 17.1493 15.0062 18.1515 14.4695C19.1537 13.9327 19.9328 13.0333 20.3424 11.9405C20.7519 10.8477 20.7636 9.63686 20.3752 8.53574C19.9869 7.43461 19.2252 6.51913 18.2336 5.96153C17.5599 5.58478 16.807 5.38752 16.0422 5.38736V5.38332Z" fill="#E0E0E0"/>
<path d="M12.5563 8.6223C12.5563 8.6223 12.2299 9.19242 13.1488 9.61496L14.1046 10.0476L14.5145 13.6523L14.9866 13.8221L15.8317 10.8462L18.4369 11.6549L18.9556 12.322L19.6005 10.7047L18.8099 10.8624L16.3446 9.56037L17.6229 6.84117L17.1955 6.60059L14.5145 8.88107L13.6928 8.46056C13.6928 8.46056 12.9254 7.91065 12.5563 8.6223Z" fill="#E0E0E0"/>
<path d="M26.6054 14.5009L11.8916 21.3696L11.9711 21.5541L26.6849 14.6854L26.6054 14.5009Z" fill="#E0E0E0"/>
<path d="M62.3734 37.2812L44.6534 31.3535C43.4798 30.9609 42.2225 31.6327 41.8452 32.8541L33.4328 60.0888C33.0555 61.3102 33.7011 62.6186 34.8747 63.0112L52.5947 68.9389C53.7684 69.3315 55.0256 68.6597 55.4029 67.4383L63.8154 40.2036C64.1926 38.9822 63.5471 37.6738 62.3734 37.2812Z" fill="#263238"/>
<path d="M48.922 57.2786C48.4656 57.2771 48.0103 57.2311 47.5621 57.1411C43.7874 56.3789 41.2969 52.6549 42.0079 48.842C42.1772 47.9278 42.5227 47.0589 43.0235 46.2875C43.5243 45.5161 44.1701 44.8583 44.922 44.3538C46.4652 43.3164 48.3342 42.9404 50.1378 43.3044C51.9414 43.6684 53.5398 44.7443 54.5986 46.3067C55.1146 47.0673 55.4774 47.9287 55.6654 48.8389C55.8533 49.7492 55.8625 50.6896 55.6923 51.6036C55.0648 54.9536 52.1741 57.2786 48.922 57.2786ZM48.7549 43.3692C47.4301 43.3676 46.1336 43.7689 45.0249 44.5236C44.2946 45.0132 43.6672 45.6516 43.1804 46.4004C42.6936 47.1492 42.3575 47.9928 42.1925 48.8804C41.5009 52.5842 43.9234 56.201 47.5932 56.9409C48.0309 57.0306 48.4759 57.0759 48.922 57.0764C52.0828 57.0764 54.8919 54.8202 55.498 51.5652C55.6627 50.6786 55.6535 49.7665 55.4709 48.8837C55.2882 48.0009 54.936 47.1656 54.4354 46.4281C53.4117 44.9025 51.8544 43.8552 50.0973 43.5107C49.6553 43.4188 49.2057 43.3714 48.7549 43.3692Z" fill="#4E72D1"/>
<path d="M49.4087 55.7849C48.6092 55.7819 47.8161 55.6363 47.0639 55.3543C41.9954 53.5024 42.178 47.9528 42.1799 47.8982V47.8659L42.1993 47.8416C42.2304 47.7992 45.3621 43.5637 50.3257 45.4156C55.2893 47.2674 55.4894 52.3298 55.4913 52.3804V52.4147L55.4719 52.443C55.4466 52.4936 53.129 55.7849 49.4087 55.7849ZM42.3722 47.9387C42.3722 48.3854 42.3955 53.4357 47.128 55.1642C51.8604 56.8928 55.0173 52.7382 55.2873 52.3561C55.2621 51.9133 54.8716 47.3342 50.2518 45.6076C45.6321 43.8811 42.6364 47.595 42.3722 47.9387Z" fill="#4E72D1"/>
<path d="M51.1961 53.7773C50.0826 53.7605 48.9808 53.5381 47.9421 53.1203C42.5239 51.046 42.248 48.254 42.2383 48.1368V48.0781L42.2849 48.0458C42.3121 48.0256 45.131 46.0403 49.6264 47.694C54.1218 49.3478 55.1708 52.0124 55.2136 52.1256L55.235 52.1822L55.1961 52.2287C55.1767 52.2489 53.8848 53.7773 51.1961 53.7773ZM42.4403 48.1792C42.5141 48.5836 43.1475 51.0703 48.0081 52.9302C52.4413 54.6265 54.6813 52.4895 55.0018 52.1438C54.8212 51.7394 53.5953 49.3741 49.5623 47.8841C45.4806 46.3839 42.8308 47.9265 42.4403 48.1792Z" fill="#4E72D1"/>
<path d="M42.3667 48.0319L42.3066 48.2241L55.0933 52.5503L55.1534 52.358L42.3667 48.0319Z" fill="#4E72D1"/>
<path d="M47.2513 56.9615C47.0962 56.9641 46.9411 56.956 46.787 56.9373L46.7501 56.9251C46.7054 56.8968 42.3033 54.0947 44.1372 48.9414C45.1979 45.9574 46.9735 44.6372 48.2771 44.057C49.0973 43.6759 49.988 43.4874 50.8861 43.505H50.9153L50.9386 43.5232C50.9833 43.5576 55.3019 47.0875 53.3436 52.2934C52.3218 55.0106 50.5947 56.1347 49.3261 56.5895C48.6588 56.8313 47.9579 56.9569 47.2513 56.9615ZM46.8336 56.7391C47.1581 56.7735 51.3271 57.1031 53.163 52.2206C54.9988 47.3382 51.1814 43.9902 50.8434 43.7052C50.4548 43.689 46.2159 43.6749 44.3178 49.0122C42.5985 53.8501 46.5364 56.537 46.8336 56.7391Z" fill="#4E72D1"/>
<path d="M46.7661 56.941L46.7369 56.9087C46.7136 56.8844 44.4446 54.3209 46.0784 49.6487C47.9647 44.2507 50.7409 43.5371 50.8652 43.5088L50.9235 43.4946L50.9623 43.5432C50.9818 43.5694 53.0274 46.2684 51.3509 51.1792C49.4082 56.8399 46.9196 56.939 46.8127 56.941H46.7661ZM50.8458 43.7231C50.4339 43.8606 47.955 44.8633 46.259 49.7175C45.4256 52.101 45.6393 53.8963 45.9676 54.9739C46.1483 55.6119 46.4465 56.2073 46.8457 56.7267C47.1779 56.6843 49.4062 56.2193 51.1585 51.1023C52.0192 48.5954 51.8773 46.7051 51.6073 45.5628C51.4642 44.9055 51.2061 44.2811 50.8458 43.7211V43.7231Z" fill="#4E72D1"/>
<path d="M50.7789 43.5644L46.71 56.8008L46.895 56.8624L50.964 43.626L50.7789 43.5644Z" fill="#4E72D1"/>
<path d="M48.0436 60.7855L44.1338 59.4775L43.9578 60.0473L47.8676 61.3552L48.0436 60.7855Z" fill="white"/>
<path d="M35.6458 63.271C35.6186 63.2609 37.8682 56.195 40.6696 47.4875C43.471 38.78 45.7653 31.7182 45.7925 31.7364C45.8197 31.7546 43.5681 38.8124 40.7667 47.5199C37.9653 56.2274 35.671 63.2791 35.6458 63.271Z" fill="#263238"/>
<path d="M58.0168 41.0939L46.0635 37.0952L45.7448 38.1269L57.6981 42.1255L58.0168 41.0939Z" fill="white"/>
<path d="M32.2403 15.6338C32.2403 15.6338 32.5414 17.6009 32.6716 18.0315C32.8018 18.4622 33.4331 20.2251 33.2369 21.2865C33.0407 22.3479 32.5104 22.9281 31.504 22.8189L31.4807 22.2124C31.4807 22.2124 32.5414 22.2124 32.5842 21.331C32.6269 20.4495 32.3899 19.0242 31.8906 18.5269C31.7462 18.3751 31.5518 18.2862 31.3467 18.2782V15.6338H32.2403Z" fill="#455A64"/>
<path d="M15.0225 20.0693V64.5247H47.3879V20.0693H15.0225ZM24.8137 23.482H21.6587C21.5725 23.487 21.4862 23.4736 21.4051 23.4426C21.3239 23.4117 21.2498 23.3639 21.187 23.3021C21.1243 23.2403 21.0743 23.1659 21.0401 23.0833C21.006 23.0007 20.9883 22.9118 20.9883 22.8219C20.9883 22.732 21.006 22.6431 21.0401 22.5605C21.0743 22.4779 21.1243 22.4035 21.187 22.3417C21.2498 22.2799 21.3239 22.2321 21.4051 22.2012C21.4862 22.1702 21.5725 22.1568 21.6587 22.1618H24.8137C24.9758 22.1711 25.1284 22.2448 25.24 22.3675C25.3516 22.4903 25.4138 22.6529 25.4138 22.8219C25.4138 22.9909 25.3516 23.1535 25.24 23.2763C25.1284 23.399 24.9758 23.4726 24.8137 23.482ZM31.4635 23.482C31.2952 23.482 31.1307 23.4301 30.9908 23.3327C30.8509 23.2354 30.7418 23.0972 30.6774 22.9353C30.613 22.7735 30.5962 22.5955 30.629 22.4237C30.6618 22.2519 30.7429 22.0942 30.8619 21.9703C30.9809 21.8465 31.1325 21.7621 31.2975 21.728C31.4626 21.6938 31.6337 21.7113 31.7892 21.7784C31.9447 21.8454 32.0775 21.9589 32.171 22.1045C32.2645 22.2501 32.3144 22.4213 32.3144 22.5965C32.3144 22.7131 32.2923 22.8286 32.2493 22.9363C32.2063 23.044 32.1433 23.1418 32.0639 23.2241C31.9844 23.3063 31.8902 23.3715 31.7865 23.4157C31.6828 23.46 31.5717 23.4825 31.4597 23.482H31.4635ZM41.245 23.482H38.0882C37.926 23.4726 37.7734 23.399 37.6618 23.2763C37.5502 23.1535 37.488 22.9909 37.488 22.8219C37.488 22.6529 37.5502 22.4903 37.6618 22.3675C37.7734 22.2448 37.926 22.1711 38.0882 22.1618H41.2412C41.4033 22.1711 41.5559 22.2448 41.6675 22.3675C41.7791 22.4903 41.8413 22.6529 41.8413 22.8219C41.8413 22.9909 41.7791 23.1535 41.6675 23.2763C41.5559 23.399 41.4033 23.4726 41.2412 23.482H41.245Z" fill="white"/>
<path d="M41.2407 23.482C41.3725 23.4657 41.4981 23.4149 41.606 23.3344C41.6995 23.2609 41.7705 23.1606 41.8102 23.0459C41.85 22.9311 41.8568 22.8068 41.8298 22.688C41.8028 22.5693 41.7432 22.4613 41.6583 22.3772C41.5734 22.2931 41.4668 22.2366 41.3515 22.2144C41.2221 22.2061 41.0923 22.2061 40.9629 22.2144H40.0907H38.0877C38.0078 22.2142 37.9287 22.2312 37.8554 22.2641C37.782 22.2971 37.7159 22.3454 37.6613 22.4061C37.6066 22.4668 37.5645 22.5385 37.5376 22.6168C37.5107 22.6951 37.4996 22.7784 37.5049 22.8614C37.5135 23.0183 37.5802 23.1657 37.6911 23.2724C37.802 23.3791 37.9484 23.4369 38.0994 23.4335L39.7332 23.4456L40.8367 23.4618H41.1358C41.1711 23.4596 41.2065 23.4631 41.2407 23.4719C41.2063 23.4795 41.1711 23.4829 41.1358 23.482H40.8367L39.7332 23.4982L38.0994 23.5103C37.9285 23.5125 37.763 23.4483 37.6351 23.3304C37.5673 23.2679 37.5122 23.192 37.4729 23.1072C37.4336 23.0223 37.4109 22.9301 37.4062 22.836C37.4015 22.7419 37.4148 22.6478 37.4455 22.5591C37.4761 22.4704 37.5234 22.389 37.5846 22.3195C37.6485 22.2467 37.7262 22.1885 37.8128 22.1484C37.8994 22.1084 37.993 22.0875 38.0877 22.087H40.0907H40.9629C41.0971 22.0826 41.2315 22.0874 41.3651 22.1012C41.4926 22.1282 41.6099 22.1927 41.7031 22.2872C41.7836 22.3666 41.8436 22.4658 41.8776 22.5757C41.9115 22.6856 41.9183 22.8026 41.8974 22.9159C41.8663 23.0859 41.773 23.2367 41.6371 23.3365C41.5532 23.3985 41.4556 23.4374 41.3534 23.4497C41.3184 23.4684 41.28 23.4794 41.2407 23.482Z" fill="#263238"/>
<path d="M31.4593 23.4821C31.4593 23.472 31.5351 23.472 31.6536 23.4336C31.8328 23.3802 31.9899 23.2664 32.1004 23.1101C32.1796 22.9963 32.2308 22.8639 32.2494 22.7247C32.268 22.5855 32.2536 22.4436 32.2072 22.3116C32.1499 22.1511 32.0468 22.0127 31.9117 21.915C31.7766 21.8172 31.616 21.7649 31.4515 21.7649C31.287 21.7649 31.1264 21.8172 30.9913 21.915C30.8563 22.0127 30.7531 22.1511 30.6958 22.3116C30.649 22.4435 30.6342 22.5855 30.6529 22.7248C30.6715 22.8641 30.723 22.9965 30.8027 23.1101C30.9129 23.2658 31.0692 23.3795 31.2475 23.4336C31.3758 23.472 31.4515 23.472 31.4515 23.4821C31.4515 23.4922 31.4321 23.4821 31.3971 23.4821C31.3436 23.4834 31.2901 23.4779 31.2378 23.466C31.0429 23.4232 30.8688 23.3101 30.7463 23.1465C30.6536 23.0245 30.5923 22.8799 30.5682 22.7264C30.5441 22.5729 30.5579 22.4155 30.6084 22.2691C30.6706 22.0883 30.785 21.9319 30.936 21.8213C31.0869 21.7107 31.267 21.6514 31.4515 21.6514C31.6361 21.6514 31.8162 21.7107 31.9671 21.8213C32.118 21.9319 32.2324 22.0883 32.2947 22.2691C32.3446 22.4156 32.3582 22.5729 32.3341 22.7263C32.3099 22.8797 32.2489 23.0242 32.1567 23.1465C32.0339 23.3106 31.859 23.4239 31.6633 23.466C31.6116 23.4779 31.5588 23.4833 31.5059 23.4821C31.4787 23.4882 31.4593 23.4862 31.4593 23.4821Z" fill="#263238"/>
<path d="M24.814 23.482C24.9457 23.4657 25.0714 23.4149 25.1792 23.3344C25.2488 23.2788 25.3061 23.2081 25.3469 23.1272C25.3878 23.0463 25.4113 22.9572 25.416 22.8659C25.4206 22.7747 25.4061 22.6835 25.3737 22.5986C25.3412 22.5137 25.2914 22.4371 25.2278 22.3741C25.1443 22.2918 25.0397 22.2363 24.9267 22.2144C24.7973 22.2061 24.6675 22.2061 24.5381 22.2144H23.6639H21.6629C21.583 22.2142 21.5039 22.2312 21.4305 22.2641C21.3572 22.2971 21.2911 22.3454 21.2365 22.4061C21.1818 22.4668 21.1397 22.5385 21.1128 22.6168C21.0859 22.6951 21.0748 22.7784 21.0801 22.8614C21.0886 23.0179 21.1551 23.165 21.2656 23.2717C21.3761 23.3784 21.522 23.4364 21.6726 23.4335L23.3084 23.4456L24.4099 23.4618H24.7091C24.7443 23.4594 24.7798 23.4628 24.814 23.4719C24.7795 23.4797 24.7443 23.4831 24.7091 23.482H24.4099L23.3084 23.4982L21.6726 23.5103C21.5018 23.5123 21.3363 23.4482 21.2083 23.3304C21.1406 23.2679 21.0854 23.192 21.0461 23.1072C21.0068 23.0223 20.9841 22.9301 20.9794 22.836C20.9747 22.7419 20.9881 22.6478 21.0187 22.5591C21.0493 22.4704 21.0966 22.389 21.1578 22.3195C21.2222 22.2469 21.3003 22.1887 21.3872 22.1487C21.4741 22.1087 21.5679 22.0877 21.6629 22.087H23.6639H24.5381C24.6723 22.0826 24.8067 22.0874 24.9403 22.1012C25.0676 22.1286 25.1848 22.1931 25.2783 22.2872C25.3582 22.367 25.4178 22.4663 25.4517 22.576C25.4856 22.6858 25.4928 22.8026 25.4726 22.9159C25.4408 23.0862 25.3468 23.237 25.2103 23.3365C25.1266 23.3988 25.029 23.4378 24.9267 23.4497C24.8916 23.4683 24.8533 23.4793 24.814 23.482Z" fill="#263238"/>
<path d="M15.0222 20.0694L47.3876 20.0249H47.4304V20.0694C47.4304 32.6424 47.4304 47.9811 47.4401 64.5207V64.5773H47.3876H15.0222H14.9756V64.5308C15.0008 38.1839 15.0203 20.4919 15.0203 20.0754C15.0203 20.4919 15.0397 38.1839 15.065 64.5308L15.0203 64.4823H47.3857L47.3352 64.5349C47.3352 47.9953 47.3352 32.6565 47.3449 20.0835L47.3857 20.126L15.0222 20.0694Z" fill="#263238"/>
<path d="M42.6454 40.5776C42.4621 40.578 42.2827 40.5218 42.1301 40.4161C41.9774 40.3104 41.8583 40.1599 41.7879 39.9837C41.7175 39.8076 41.6988 39.6136 41.7344 39.4264C41.7699 39.2392 41.858 39.0672 41.9875 38.9321C42.117 38.797 42.2822 38.705 42.462 38.6676C42.6418 38.6302 42.8282 38.6492 42.9976 38.7221C43.1671 38.7951 43.3119 38.9187 43.4138 39.0773C43.5157 39.2359 43.5701 39.4225 43.5701 39.6133C43.5696 39.8685 43.4721 40.1132 43.2988 40.2939C43.1256 40.4746 42.8907 40.5766 42.6454 40.5776ZM42.6454 38.8511C42.5005 38.8507 42.3587 38.8951 42.238 38.9786C42.1173 39.0621 42.0231 39.181 41.9674 39.3202C41.9116 39.4594 41.8969 39.6128 41.9249 39.7607C41.9529 39.9087 42.0225 40.0447 42.1249 40.1515C42.2272 40.2583 42.3577 40.3311 42.4999 40.3607C42.642 40.3902 42.7894 40.3753 42.9233 40.3176C43.0572 40.26 43.1717 40.1623 43.2523 40.0369C43.3329 39.9116 43.3759 39.7641 43.3759 39.6133C43.3759 39.4115 43.299 39.2179 43.162 39.0751C43.0251 38.9322 42.8393 38.8516 42.6454 38.8511Z" fill="#4E72D1"/>
<path d="M43.4011 43.9535C43.6296 43.9535 43.8149 43.7607 43.8149 43.5229C43.8149 43.2851 43.6296 43.0923 43.4011 43.0923C43.1726 43.0923 42.9873 43.2851 42.9873 43.5229C42.9873 43.7607 43.1726 43.9535 43.4011 43.9535Z" fill="#4E72D1"/>
<path d="M22.2877 30.2666L21.6719 29.6277L22.2877 28.9868L22.9035 29.6277L22.2877 30.2666ZM21.9477 29.6277L22.2877 29.9815L22.6296 29.6277L22.2877 29.2719L21.9477 29.6277Z" fill="#4E72D1"/>
<path d="M20.2725 53.6177L21.0243 54.0463L21.7742 54.4769L21.0398 54.9379L20.3074 55.3988L20.2899 54.5093L20.2725 53.6177Z" fill="#4E72D1"/>
<path d="M36.4957 48.0095L36.4685 48.0257L35.8177 46.6307L35.7128 46.6064L35.5186 50.0272L35.6545 51.2948C36.7308 50.8642 37.8129 50.3547 37.7294 50.0676C37.6847 49.916 37.1796 49.0103 36.5948 47.9913C36.5543 48.0153 36.5104 48.0324 36.4646 48.0419L36.4957 48.0095Z" fill="#EBEBEB"/>
<path d="M34.4419 37.3086C34.4305 37.5365 34.335 37.7511 34.1755 37.9077C34.0159 38.0643 33.8045 38.151 33.5852 38.1496C33.3622 38.1332 33.1476 38.0548 32.9637 37.9225C32.7798 37.7902 32.6335 37.6089 32.54 37.3975V38.9179C32.575 38.9179 32.5964 38.9078 32.5983 38.9179C34.7353 39.0614 36.3108 40.0237 37.4959 41.7078C37.4959 41.7078 39.322 44.3361 40.2157 45.8806L39.967 46.0242C39.9714 46.0347 39.9766 46.0448 39.9825 46.0545C40.0864 45.9924 40.1965 45.9423 40.3108 45.9049C40.217 45.9833 40.1154 46.0511 40.0078 46.1071C40.1321 46.3436 40.2545 46.5842 40.373 46.8308C40.3886 46.6165 40.3983 46.4022 40.3983 46.1839C40.3981 44.3929 39.9078 42.639 38.9848 41.1273C38.0617 39.6157 36.7441 38.409 35.186 37.6482C34.9431 37.6246 34.7132 37.5236 34.5274 37.3591L34.4419 37.3086Z" fill="#EBEBEB"/>
<path d="M28.985 38.9094C28.985 38.9094 29.0045 38.9094 29.0375 38.9094C29.0219 38.3757 28.9947 37.6458 28.9831 37.3305L28.9734 37.1728C28.9002 37.1631 28.8276 37.1496 28.7558 37.1323C27.5169 37.5184 26.3716 38.1754 25.3963 39.0592C24.421 39.9431 23.6383 41.0334 23.1006 42.2574L24.9287 40.8159C26.4071 39.6878 27.3862 38.9802 28.985 38.9094Z" fill="#EBEBEB"/>
<path d="M26.3962 48.8057C26.5905 49.1635 26.7498 49.3616 26.7401 49.3717C26.7304 49.3819 26.6837 49.3293 26.606 49.2322C26.4976 49.0938 26.3983 48.9479 26.3088 48.7956C26.1942 48.5934 26.0601 48.3791 25.9203 48.1061C25.8032 47.7979 25.7534 47.4664 25.7745 47.1357C25.7736 47.1243 25.7736 47.1128 25.7745 47.1014C25.7648 46.7361 25.8201 46.3721 25.9377 46.0278L24.9081 46.788C24.746 46.6269 24.5923 46.4568 24.4477 46.2785L24.3622 46.1815C23.7069 46.5795 23.0326 46.9426 22.3418 47.2692C22.5007 48.6898 22.9681 50.0542 23.7086 51.2591C24.449 52.464 25.4432 53.4778 26.6157 54.2238L26.7673 49.3252C26.6391 49.1494 26.5108 48.9755 26.3962 48.8057Z" fill="#EBEBEB"/>
<path d="M40.6199 47.3179C40.5422 47.1501 40.4625 46.9823 40.3809 46.8185C40.2624 46.5718 40.14 46.3313 40.0157 46.0947C39.6796 46.2969 39.0929 46.6365 38.4207 47.0085C37.5932 47.4695 36.8841 47.8475 36.6024 47.981C37.1852 48.9918 37.6922 49.9057 37.7369 50.0573C37.8204 50.3444 36.7384 50.8538 35.6621 51.2845L35.9827 54.2645C36.039 54.2281 36.0973 54.1957 36.1556 54.1593C37.3277 53.4189 38.333 52.4248 39.1033 51.2443C39.8736 50.0638 40.3908 48.7247 40.6199 47.3179Z" fill="#E3E3E3"/>
<path d="M23.3535 45.0496C22.9183 44.5724 22.5337 44.1297 22.2695 43.7961C22.1432 43.6404 22.0441 43.511 21.9761 43.416C21.4613 43.792 21.0941 44.0023 21.0611 43.8648C20.4123 41.0951 20.5949 37.5611 20.6998 36.2066C20.7717 36.0893 20.8552 35.962 20.9543 35.8204C21.0687 35.6578 21.2086 35.5164 21.3681 35.4019C21.5598 35.2496 21.771 35.1257 21.9956 35.034C22.2093 34.9713 22.2442 34.6762 22.0577 34.6054C21.8712 34.5346 21.2806 34.6923 20.7328 35.1695C20.185 35.6466 20.4084 34.5124 20.4822 34.1C20.556 33.6875 20.7289 32.3936 20.624 32.2804C20.4686 32.1025 20.253 32.244 20.1869 32.6585C20.1208 33.0729 19.843 34.3082 19.6352 34.2617C19.4273 34.2152 19.8294 32.1126 19.8294 32.1126C19.8294 32.1126 19.9868 31.6759 19.7479 31.6153C19.3146 31.5041 19.0426 33.7704 19.0213 33.9867C19.0077 34.1364 18.7784 34.0959 18.8018 33.9362C18.8251 33.7765 19.2544 31.8437 18.8154 31.7285C18.4773 31.6375 18.5745 33.5905 18.2714 33.9524C17.9683 34.3143 18.3452 32.4604 18.0188 32.3896C17.8984 32.3633 17.8032 32.3593 17.7352 33.449C17.7197 34.3261 17.7501 35.2035 17.8265 36.0772C17.539 39.0653 17.2321 49.3841 20.9484 47.8981C21.4458 47.696 21.9101 47.4938 22.3472 47.2916C23.038 46.965 23.7123 46.602 24.3676 46.204C24.1014 45.8744 23.7479 45.4842 23.3535 45.0496Z" fill="#E3E3E3"/>
<path d="M33.9235 55.0042C33.8963 54.8627 34.077 54.8587 34.077 54.8587C34.077 54.8587 33.8827 54.6565 33.9934 54.5231C34.1042 54.3896 34.3431 54.612 34.3431 54.612C34.3431 54.612 34.3917 54.4563 34.4849 54.4624C34.5782 54.4685 34.6559 54.7252 34.6559 54.7252C34.6559 54.7252 34.7161 54.6181 34.7958 54.6484C34.8249 54.6484 34.8638 54.7293 34.8948 54.8283C35.2687 54.6648 35.6321 54.4764 35.9828 54.2643L35.6622 51.2802L35.5262 50.0126L35.7205 46.5919L35.8254 46.6162L36.4704 48.0253L36.4976 48.0091C36.6355 47.904 37.4184 47.4491 38.3742 46.9154L39.0581 46.5393L39.9672 46.0238L40.2101 45.8843C39.3242 44.3478 37.4903 41.7115 37.4903 41.7115C36.3052 40.0274 34.7317 39.0651 32.5927 38.9215C32.43 39.0043 32.2576 39.0648 32.0799 39.1015C31.6551 39.2092 31.2194 39.2635 30.7821 39.2632C30.3449 39.2619 29.9093 39.2069 29.4844 39.0994C29.306 39.0644 29.1333 39.0031 28.9715 38.9175C27.3727 38.9882 26.3936 39.6958 24.9152 40.828L23.0871 42.2695L21.8477 43.248C22.0108 43.4074 22.1645 43.5768 22.3081 43.7554C22.5859 44.0749 22.9764 44.5075 23.4115 44.9846C23.8467 45.4618 24.2294 45.9045 24.4956 46.2381C24.6277 46.4039 24.7326 46.5413 24.8006 46.6424C24.841 46.69 24.8749 46.743 24.9016 46.8001L25.9312 46.04C25.8136 46.3842 25.7582 46.7482 25.768 47.1135C25.7694 46.9558 25.7817 46.7983 25.8049 46.6424C25.8326 46.4862 25.8729 46.3327 25.9254 46.1835C26.0187 45.9348 26.1414 45.6992 26.2906 45.482C26.3901 45.3361 26.4985 45.197 26.615 45.0655C26.6552 45.015 26.7016 44.9701 26.753 44.9321C26.7666 44.9442 26.5859 45.1504 26.3508 45.5244C26.2126 45.7408 26.0998 45.9736 26.0148 46.2179C25.9134 46.5171 25.8634 46.8326 25.8671 47.1499C25.8479 47.4659 25.8922 47.7827 25.9973 48.0799C26.1177 48.3366 26.2518 48.5752 26.3547 48.7693L26.3819 48.8178C26.4965 48.9876 26.6248 49.1615 26.7705 49.3374L26.6189 54.236V54.3977C26.995 54.6126 27.3844 54.801 27.7846 54.9618C27.8117 54.8809 27.9341 54.8769 27.9341 54.8769C27.9341 54.8769 27.7399 54.6747 27.8506 54.5392C27.9613 54.4038 28.2003 54.6282 28.2003 54.6282C28.2003 54.6282 28.2489 54.4745 28.3421 54.4786C28.4354 54.4826 28.5131 54.7434 28.5131 54.7434C28.5131 54.7434 28.5733 54.6363 28.6529 54.6646C28.7326 54.6929 28.8472 55.0123 28.7812 55.2933C29.5661 55.5041 30.3736 55.6108 31.1843 55.6107H31.2562C32.1936 55.6061 33.1252 55.4569 34.0206 55.168C33.9949 55.1487 33.973 55.1243 33.9564 55.0962C33.9397 55.0681 33.9285 55.0368 33.9235 55.0042ZM34.5063 51.9717C34.4852 51.9717 34.4649 51.9629 34.45 51.9474C34.435 51.9318 34.4267 51.9108 34.4267 51.8888C34.4267 51.8668 34.435 51.8457 34.45 51.8302C34.4649 51.8146 34.4852 51.8059 34.5063 51.8059C34.524 51.8098 34.5399 51.8198 34.5514 51.8344C34.5629 51.8489 34.5692 51.8671 34.5695 51.8859C34.5697 51.9048 34.5638 51.9231 34.5526 51.938C34.5415 51.9528 34.5258 51.9633 34.5082 51.9676L34.5063 51.9717ZM36.2839 44.5479H36.2528C36.2404 44.5455 36.2292 44.5386 36.2211 44.5284C36.213 44.5183 36.2086 44.5055 36.2086 44.4923C36.2086 44.4792 36.213 44.4664 36.2211 44.4563C36.2292 44.4461 36.2404 44.4392 36.2528 44.4367H36.2839C36.3577 44.4226 36.3577 44.55 36.2858 44.5439L36.2839 44.5479ZM37.5311 46.6687C37.5311 46.6687 37.4728 46.7172 37.3893 46.606C37.3893 46.606 37.4184 46.8345 37.3057 46.9194C37.1931 47.0043 37.1115 46.8345 37.1115 46.8345C37.1115 46.8345 37.026 47.1054 36.8531 47.0569C36.6802 47.0084 36.7831 46.691 36.7831 46.691C36.7831 46.691 36.6277 46.7092 36.5889 46.6202C36.55 46.5312 36.7443 46.3473 36.7443 46.3473C36.7443 46.3473 36.6277 46.3351 36.618 46.2482C36.6083 46.1613 36.9483 45.8135 37.2824 45.8439C37.326 45.7216 37.3841 45.6055 37.4553 45.4981C37.4343 45.6215 37.3971 45.7412 37.3446 45.854C37.4087 45.9065 37.7331 46.3351 37.533 46.6647L37.5311 46.6687ZM38.9667 45.4557C38.949 45.4527 38.9328 45.4432 38.9211 45.429C38.9095 45.4147 38.9031 45.3966 38.9031 45.3779C38.9031 45.3591 38.9095 45.341 38.9211 45.3267C38.9328 45.3125 38.949 45.303 38.9667 45.3C38.9846 45.3028 39.0008 45.312 39.0127 45.3261C39.0245 45.3402 39.0312 45.3583 39.0314 45.377C39.0317 45.3957 39.0255 45.4139 39.014 45.4284C39.0025 45.4428 38.9864 45.4525 38.9687 45.4557H38.9667ZM36.7579 42.5869C36.8745 42.4454 37.1056 42.6758 37.1056 42.6758C37.1056 42.6758 37.1561 42.5222 37.2475 42.5262C37.3388 42.5303 37.4204 42.7911 37.4204 42.7911C37.4204 42.7911 37.4786 42.6839 37.5602 42.7122C37.6418 42.7405 37.8011 43.2116 37.6243 43.5108C37.7122 43.6024 37.788 43.7057 37.8497 43.8181C37.7515 43.7453 37.6632 43.6589 37.5874 43.5613C37.5214 43.5917 37.0046 43.717 36.8103 43.3855C36.8103 43.3855 36.7929 43.3107 36.925 43.2783C36.925 43.2783 36.7152 43.2096 36.688 43.0761C36.6608 42.9427 36.8434 42.9326 36.8434 42.9326C36.8434 42.9326 36.6413 42.7264 36.7579 42.5869ZM35.1552 40.4782C35.1706 40.4782 35.1854 40.4846 35.1964 40.496C35.2073 40.5074 35.2134 40.5228 35.2134 40.5389C35.2134 40.555 35.2073 40.5704 35.1964 40.5818C35.1854 40.5932 35.1706 40.5995 35.1552 40.5995C35.1392 40.5995 35.1239 40.5929 35.1126 40.5812C35.1013 40.5694 35.0949 40.5535 35.0949 40.5369C35.0949 40.5202 35.1013 40.5043 35.1126 40.4926C35.1239 40.4808 35.1392 40.4742 35.1552 40.4742V40.4782ZM34.8638 42.3119C34.8792 42.3119 34.894 42.3183 34.905 42.3297C34.9159 42.3411 34.922 42.3565 34.922 42.3726C34.922 42.3887 34.9159 42.4041 34.905 42.4155C34.894 42.4268 34.8792 42.4332 34.8638 42.4332C34.8478 42.4332 34.8325 42.4266 34.8212 42.4149C34.8099 42.4031 34.8035 42.3872 34.8035 42.3706C34.8035 42.3539 34.8099 42.338 34.8212 42.3262C34.8325 42.3145 34.8478 42.3079 34.8638 42.3079V42.3119ZM34.6287 47.2591C34.6714 47.3035 34.6442 47.4046 34.5743 47.3965H34.5568C34.5413 47.3955 34.5268 47.3885 34.516 47.377C34.5052 47.3654 34.499 47.35 34.4985 47.3339V47.3177C34.4869 47.2368 34.5859 47.2085 34.6287 47.255V47.2591ZM33.7506 44.8997C33.7674 44.9026 33.7826 44.9116 33.7936 44.9251C33.8047 44.9387 33.8107 44.9558 33.8107 44.9735C33.8107 44.9912 33.8047 45.0084 33.7936 45.0219C33.7826 45.0354 33.7674 45.0444 33.7506 45.0473C33.7338 45.0444 33.7185 45.0354 33.7075 45.0219C33.6965 45.0084 33.6905 44.9912 33.6905 44.9735C33.6905 44.9558 33.6965 44.9387 33.7075 44.9251C33.7185 44.9116 33.7338 44.9026 33.7506 44.8997ZM32.7035 40.1608C32.7035 40.1608 32.7618 40.1143 32.8433 40.2275C32.8433 40.2275 32.82 39.9991 32.9347 39.9182C33.0493 39.8374 33.1289 40.0112 33.1289 40.0112C33.1289 40.0112 33.2222 39.7423 33.3951 39.7989C33.568 39.8556 33.4514 40.1669 33.4514 40.1669C33.4514 40.1669 33.6088 40.1548 33.6457 40.2437C33.6826 40.3327 33.4806 40.5106 33.4806 40.5106C33.4806 40.5106 33.5991 40.5268 33.6049 40.6157C33.6107 40.7047 33.2591 41.0383 32.9249 40.9857C32.8785 41.1067 32.8171 41.2209 32.7423 41.3253C32.7665 41.2025 32.8077 41.084 32.8647 40.9736C32.8006 40.9169 32.4898 40.4782 32.7035 40.1608ZM31.1979 49.2221H31.227C31.239 49.2255 31.2495 49.2329 31.2571 49.2431C31.2646 49.2533 31.2687 49.2659 31.2687 49.2787C31.2687 49.2916 31.2646 49.3042 31.2571 49.3144C31.2495 49.3246 31.239 49.332 31.227 49.3354H31.1979C31.1884 49.3395 31.1781 49.3411 31.1679 49.3401C31.1577 49.3391 31.1479 49.3355 31.1394 49.3296C31.1308 49.3237 31.1238 49.3157 31.119 49.3063C31.1142 49.2969 31.1116 49.2864 31.1116 49.2757C31.1116 49.265 31.1142 49.2545 31.119 49.2451C31.1238 49.2357 31.1308 49.2277 31.1394 49.2218C31.1479 49.2159 31.1577 49.2123 31.1679 49.2113C31.1781 49.2103 31.1884 49.2119 31.1979 49.2161V49.2221ZM31.0755 43.9879V43.9536C31.0783 43.9361 31.0869 43.9202 31.0999 43.9088C31.1129 43.8973 31.1294 43.891 31.1464 43.891C31.1634 43.891 31.1799 43.8973 31.1929 43.9088C31.2059 43.9202 31.2145 43.9361 31.2173 43.9536V43.9879C31.2251 44.0809 31.0658 44.0809 31.0755 43.9819V43.9879ZM30.7938 54.5898C30.8063 54.5903 30.8185 54.5941 30.8292 54.6009C30.84 54.6076 30.8489 54.6171 30.8551 54.6284C30.8613 54.6398 30.8646 54.6525 30.8648 54.6656C30.865 54.6786 30.8619 54.6915 30.856 54.703V54.7151C30.8505 54.7248 30.8426 54.7327 30.8333 54.7383C30.8239 54.7438 30.8133 54.7467 30.8025 54.7467C30.7918 54.7467 30.7812 54.7438 30.7718 54.7383C30.7624 54.7327 30.7546 54.7248 30.7491 54.7151L30.7394 54.703C30.7323 54.6919 30.728 54.6791 30.7271 54.6659C30.7261 54.6526 30.7285 54.6393 30.734 54.6273C30.7395 54.6152 30.7479 54.6049 30.7584 54.5973C30.7689 54.5896 30.7811 54.585 30.7938 54.5837V54.5898ZM30.7938 46.9861C30.8139 46.9861 30.8332 46.9944 30.8474 47.0092C30.8616 47.024 30.8696 47.0441 30.8696 47.065C30.8696 47.0859 30.8616 47.1059 30.8474 47.1207C30.8332 47.1355 30.8139 47.1438 30.7938 47.1438C30.7729 47.1438 30.7529 47.1352 30.7382 47.1198C30.7234 47.1045 30.7151 47.0837 30.7151 47.0619C30.7151 47.0402 30.7234 47.0194 30.7382 47.004C30.7529 46.9887 30.7729 46.9801 30.7938 46.9801V46.9861ZM30.6656 51.7735C30.6656 51.8625 30.5276 51.8625 30.5315 51.7735V51.7574C30.5315 51.7391 30.5385 51.7217 30.5509 51.7088C30.5633 51.6959 30.5801 51.6886 30.5976 51.6886C30.6151 51.6886 30.6319 51.6959 30.6443 51.7088C30.6567 51.7217 30.6636 51.7391 30.6636 51.7574L30.6656 51.7735ZM30.4072 41.3152C30.4096 41.3256 30.4098 41.3365 30.4076 41.347C30.4054 41.3575 30.401 41.3673 30.3946 41.3757C30.3883 41.3841 30.3801 41.391 30.3709 41.3957C30.3616 41.4003 30.3514 41.4028 30.3411 41.4028C30.3308 41.4028 30.3207 41.4003 30.3114 41.3957C30.3021 41.391 30.294 41.3841 30.2877 41.3757C30.2813 41.3673 30.2769 41.3575 30.2747 41.347C30.2725 41.3365 30.2727 41.3256 30.2751 41.3152V41.2991C30.2792 41.285 30.2876 41.2727 30.299 41.264C30.3103 41.2552 30.3241 41.2505 30.3382 41.2505C30.3524 41.2505 30.3661 41.2552 30.3775 41.264C30.3888 41.2727 30.3972 41.285 30.4014 41.2991L30.4072 41.3152ZM27.3844 50.8051C27.3939 50.8073 27.4024 50.8128 27.4086 50.8207C27.4147 50.8286 27.418 50.8384 27.418 50.8486C27.418 50.8588 27.4147 50.8686 27.4086 50.8765C27.4024 50.8844 27.3939 50.8899 27.3844 50.8921C27.3725 50.8921 27.3611 50.8872 27.3528 50.8785C27.3444 50.8697 27.3397 50.8579 27.3397 50.8456C27.3397 50.8332 27.3444 50.8214 27.3528 50.8127C27.3611 50.804 27.3725 50.7991 27.3844 50.7991V50.8051ZM26.8851 47.72L26.8948 47.6897C26.898 47.6777 26.9048 47.6672 26.9143 47.6597C26.9237 47.6521 26.9353 47.6481 26.9472 47.6481C26.9592 47.6481 26.9707 47.6521 26.9802 47.6597C26.9897 47.6672 26.9965 47.6777 26.9997 47.6897L27.0094 47.72C27.0463 47.8231 26.8482 47.8211 26.8851 47.7139V47.72ZM26.4655 43.3127V43.2985C26.4714 43.2885 26.4796 43.2802 26.4895 43.2744C26.4994 43.2687 26.5105 43.2657 26.5218 43.2657C26.5331 43.2657 26.5442 43.2687 26.5541 43.2744C26.564 43.2802 26.5722 43.2885 26.5781 43.2985V43.3127C26.652 43.4461 26.4033 43.4461 26.4655 43.3066V43.3127ZM26.3975 41.291C26.4145 41.291 26.4308 41.298 26.4428 41.3105C26.4548 41.323 26.4616 41.34 26.4616 41.3577C26.4616 41.3754 26.4548 41.3923 26.4428 41.4049C26.4308 41.4174 26.4145 41.4244 26.3975 41.4244C26.3826 41.4217 26.3692 41.4136 26.3595 41.4016C26.3498 41.3896 26.3445 41.3744 26.3445 41.3587C26.3445 41.343 26.3498 41.3278 26.3595 41.3158C26.3692 41.3038 26.3826 41.2957 26.3975 41.293V41.291ZM23.7806 44.3235C23.7653 44.3208 23.7514 44.3125 23.7414 44.3001C23.7314 44.2877 23.7259 44.272 23.7259 44.2558C23.7259 44.2396 23.7314 44.2239 23.7414 44.2115C23.7514 44.1992 23.7653 44.1908 23.7806 44.1881C23.7994 44.1881 23.8175 44.1959 23.8308 44.2097C23.8441 44.2235 23.8516 44.2423 23.8516 44.2619C23.8516 44.2814 23.8441 44.3002 23.8308 44.314C23.8175 44.3279 23.7994 44.3357 23.7806 44.3357V44.3235ZM24.1692 43.062C24.1692 43.062 24.1536 42.9872 24.2838 42.9548C24.2838 42.9548 24.074 42.8861 24.0468 42.7527C24.0196 42.6192 24.2022 42.6071 24.2022 42.6071C24.2022 42.6071 24.0079 42.4049 24.1187 42.2715C24.2294 42.1381 24.4664 42.3605 24.4664 42.3605C24.4664 42.3605 24.5169 42.2048 24.6082 42.2108C24.6995 42.2169 24.7811 42.4737 24.7811 42.4737C24.7811 42.4737 24.8394 42.3665 24.921 42.3968C25.0026 42.4272 25.1619 42.8962 24.9851 43.1954C25.0727 43.2865 25.1484 43.3892 25.2105 43.5007C25.1117 43.4287 25.0233 43.3422 24.9482 43.2439C24.888 43.2783 24.3771 43.3956 24.175 43.0741L24.1692 43.062ZM25.566 46.0258C25.566 46.0258 25.5077 46.0743 25.4242 45.9631C25.4242 45.9631 25.4533 46.1916 25.3426 46.2765C25.2318 46.3614 25.1483 46.1916 25.1483 46.1916C25.1483 46.1916 25.0648 46.4625 24.8899 46.414C24.7151 46.3655 24.82 46.046 24.82 46.046C24.82 46.046 24.6646 46.0662 24.6257 45.9773C24.5869 45.8883 24.7831 45.7023 24.7831 45.7023C24.7831 45.7023 24.6646 45.6922 24.6549 45.6053C24.6451 45.5184 24.9851 45.1686 25.3212 45.201C25.3629 45.0778 25.4211 44.9615 25.4941 44.8552C25.4719 44.9785 25.434 45.0982 25.3814 45.2111C25.4475 45.2798 25.7739 45.7064 25.5718 46.0379L25.566 46.0258ZM27.9225 41.1292C27.8759 41.2505 27.8138 41.3648 27.7379 41.4689C27.7645 41.3465 27.8063 41.2282 27.8623 41.1171C27.8098 41.0666 27.499 40.6278 27.7107 40.3084C27.7107 40.3084 27.771 40.2619 27.8506 40.3751C27.8506 40.3751 27.8292 40.1467 27.9439 40.0658C28.0585 39.9849 28.1381 40.1568 28.1381 40.1568C28.1381 40.1568 28.2314 39.8899 28.4023 39.9546C28.5733 40.0193 28.4606 40.3246 28.4606 40.3246C28.4606 40.3246 28.618 40.3104 28.6549 40.4014C28.6918 40.4924 28.4898 40.6683 28.4898 40.6683C28.4898 40.6683 28.6063 40.6845 28.6121 40.7734C28.618 40.8624 28.2527 41.1717 27.9225 41.1292ZM28.2197 43.1509C28.2197 43.1509 28.0254 42.9488 28.1362 42.8133C28.2469 42.6779 28.4859 42.9023 28.4859 42.9023C28.4859 42.9023 28.5364 42.7486 28.6277 42.7527C28.719 42.7567 28.7986 43.0155 28.7986 43.0155C28.7986 43.0155 28.8589 42.9083 28.9385 42.9387C29.0182 42.969 29.1814 43.438 29.0046 43.7372C29.0927 43.8273 29.1679 43.9301 29.228 44.0425C29.1304 43.9696 29.0423 43.884 28.9657 43.7878C28.9016 43.8181 28.3829 43.9414 28.1886 43.6119C28.1886 43.6119 28.1712 43.5371 28.3033 43.5047C28.3033 43.5047 28.0915 43.436 28.0662 43.3026C28.041 43.1691 28.2158 43.155 28.2158 43.155L28.2197 43.1509ZM28.9327 45.021L28.9152 44.9887C28.8705 44.9098 28.9949 44.8411 29.0279 44.9179L29.0415 44.9543C29.0687 45.0332 28.9715 45.0999 28.9288 45.0251L28.9327 45.021ZM28.1692 47.5077C28.1957 47.3853 28.2375 47.2671 28.2935 47.156C28.2411 47.1054 27.9303 46.6667 28.142 46.3473C28.142 46.3473 28.2022 46.3008 28.2819 46.416C28.2819 46.416 28.2605 46.1855 28.3751 46.1047C28.4898 46.0238 28.5694 46.1977 28.5694 46.1977C28.5694 46.1977 28.6627 45.9288 28.8336 45.9854C29.0046 46.042 28.8919 46.3533 28.8919 46.3533C28.8919 46.3533 29.0493 46.3412 29.0862 46.4302C29.1231 46.5191 28.921 46.699 28.921 46.699C28.921 46.699 29.0376 46.7132 29.0454 46.8022C29.0531 46.8911 28.6996 47.2247 28.3654 47.1741C28.3146 47.2961 28.2472 47.4098 28.1653 47.5118L28.1692 47.5077ZM28.7306 53.2595L28.6976 53.2716C28.6296 53.2999 28.5947 53.1928 28.651 53.1564L28.6801 53.1362C28.754 53.0876 28.8161 53.2271 28.7268 53.2635L28.7306 53.2595ZM28.5364 50.419C28.5364 50.419 28.5189 50.3442 28.651 50.3118C28.651 50.3118 28.4412 50.2431 28.414 50.1097C28.3868 49.9762 28.5675 49.9641 28.5675 49.9641C28.5675 49.9641 28.3732 49.7619 28.4839 49.6265C28.5947 49.491 28.8336 49.7175 28.8336 49.7175C28.8336 49.7175 28.8841 49.5618 28.9754 49.5678C29.0667 49.5739 29.1464 49.8307 29.1464 49.8307C29.1464 49.8307 29.2066 49.7235 29.2863 49.7518C29.3659 49.7801 29.5291 50.2512 29.3523 50.5504C29.4408 50.641 29.516 50.7445 29.5757 50.8577C29.4785 50.7837 29.3904 50.6974 29.3135 50.6009C29.2532 50.6293 28.7423 50.7546 28.5403 50.423L28.5364 50.419ZM32.3324 52.6429C32.3324 52.7278 31.9866 53.0654 31.6525 53.0149C31.6077 53.1365 31.5455 53.2503 31.4679 53.3525C31.4944 53.2307 31.5362 53.1131 31.5922 53.0027C31.5398 52.9502 31.229 52.5115 31.4407 52.194C31.4407 52.194 31.5009 52.1496 31.5806 52.2628C31.5806 52.2628 31.5592 52.0343 31.6738 51.9535C31.7885 51.8726 31.8681 52.0444 31.8681 52.0444C31.8681 52.0444 31.9614 51.7756 32.1323 51.8322C32.3033 51.8888 32.1906 52.2001 32.1906 52.2001C32.1906 52.2001 32.348 52.188 32.3849 52.2769C32.4218 52.3659 32.2197 52.5458 32.2197 52.5458C32.2197 52.5458 32.3285 52.564 32.3363 52.653L32.3324 52.6429ZM32.8297 46.8325C32.8297 46.9154 32.4839 47.255 32.1517 47.2045C32.1009 47.3251 32.0357 47.4385 31.9575 47.5421C31.9816 47.4193 32.0229 47.3008 32.0799 47.1903C32.0274 47.1398 31.7166 46.7011 31.9303 46.3816C31.9303 46.3816 31.9905 46.3351 32.0702 46.4504C32.0702 46.4504 32.0468 46.2199 32.1634 46.141C32.28 46.0622 32.3577 46.232 32.3577 46.232C32.3577 46.232 32.4529 45.9631 32.6238 46.0299C32.7948 46.0966 32.6821 46.3978 32.6821 46.3978C32.6821 46.3978 32.8375 46.3857 32.8764 46.4746C32.9152 46.5636 32.7112 46.7435 32.7112 46.7435C32.7112 46.7435 32.8239 46.7476 32.8297 46.8325ZM32.4956 43.6119C32.4956 43.6119 32.4781 43.5371 32.6102 43.5047C32.6102 43.5047 32.4004 43.436 32.3732 43.3026C32.346 43.1691 32.5286 43.159 32.5286 43.159C32.5286 43.159 32.3344 42.9569 32.4451 42.8214C32.5558 42.6859 32.7928 42.9104 32.7928 42.9104C32.7928 42.9104 32.8433 42.7567 32.9347 42.7607C33.026 42.7648 33.1056 43.0236 33.1056 43.0236C33.1056 43.0236 33.1658 42.9164 33.2455 42.9467C33.3251 42.9771 33.4883 43.4461 33.3115 43.7453C33.3997 43.8354 33.4749 43.9382 33.535 44.0506C33.4378 43.978 33.3503 43.8923 33.2746 43.7959C33.2086 43.8222 32.6976 43.9455 32.4956 43.6159V43.6119ZM33.2008 54.2461C33.1807 54.2461 33.1614 54.2378 33.1472 54.223C33.133 54.2082 33.125 54.1882 33.125 54.1672C33.125 54.1463 33.133 54.1263 33.1472 54.1115C33.1614 54.0967 33.1807 54.0884 33.2008 54.0884C33.2214 54.0884 33.2412 54.0969 33.2558 54.1121C33.2703 54.1272 33.2785 54.1478 33.2785 54.1693C33.2785 54.1907 33.2703 54.2113 33.2558 54.2264C33.2412 54.2416 33.2214 54.2501 33.2008 54.2501V54.2461ZM33.5078 50.2269C33.5078 50.2269 33.4903 50.1521 33.6224 50.1198C33.6224 50.1198 33.4106 50.051 33.3854 49.9176C33.3601 49.7842 33.5388 49.7741 33.5388 49.7741C33.5388 49.7741 33.3446 49.5719 33.4553 49.4364C33.566 49.301 33.803 49.5254 33.803 49.5254C33.803 49.5254 33.8536 49.3697 33.9468 49.3758C34.0401 49.3818 34.1178 49.6386 34.1178 49.6386C34.1178 49.6386 34.176 49.5315 34.2576 49.5618C34.3392 49.5921 34.4985 50.0611 34.3217 50.3604C34.4093 50.4515 34.4851 50.5541 34.5471 50.6656C34.4483 50.5936 34.36 50.5071 34.2848 50.4089C34.2188 50.4372 33.7098 50.5605 33.5078 50.231V50.2269Z" fill="#4E72D1"/>
<path d="M24.9527 43.248L24.8342 43.1166C24.7075 42.987 24.5966 42.8417 24.504 42.684C24.6481 42.7965 24.7786 42.9268 24.8925 43.0721L24.9993 43.1995C25.1761 42.9003 25.011 42.4272 24.9352 42.4009C24.8595 42.3746 24.7954 42.4777 24.7954 42.4777C24.7954 42.4777 24.7157 42.219 24.6225 42.2149C24.5292 42.2109 24.4806 42.3645 24.4806 42.3645C24.4806 42.3645 24.2495 42.132 24.1329 42.2756C24.0163 42.4191 24.2164 42.6112 24.2164 42.6112C24.2164 42.6112 24.0358 42.6112 24.061 42.7567C24.0863 42.9023 24.298 42.9589 24.298 42.9589C24.1679 42.9913 24.1834 43.0661 24.1834 43.0661C24.3757 43.3956 24.8867 43.2783 24.9527 43.248Z" fill="#E0E0E0"/>
<path d="M24.5039 42.6841C24.5965 42.8419 24.7074 42.9872 24.8342 43.1167L24.9527 43.2481C25.0278 43.3464 25.1161 43.4329 25.2149 43.5049C25.1529 43.3934 25.0772 43.2907 24.9896 43.1996L24.8827 43.0722C24.7718 42.9275 24.6447 42.7972 24.5039 42.6841Z" fill="#263238"/>
<path d="M28.2984 43.5091C28.1663 43.5414 28.1838 43.6162 28.1838 43.6162C28.3781 43.9458 28.8968 43.8184 28.9609 43.7921L28.8443 43.6587C28.7174 43.5288 28.6059 43.3836 28.5121 43.226C28.6562 43.3387 28.7867 43.469 28.9007 43.6142L29.0095 43.7416C29.1863 43.4424 29.0211 42.9693 28.9434 42.943C28.8657 42.9167 28.8035 43.0198 28.8035 43.0198C28.8035 43.0198 28.7239 42.7631 28.6326 42.757C28.5413 42.7509 28.4908 42.9066 28.4908 42.9066C28.4908 42.9066 28.2576 42.6761 28.1411 42.8177C28.0245 42.9592 28.2246 43.1553 28.2246 43.1553C28.2246 43.1553 28.044 43.1553 28.0711 43.2988C28.0983 43.4424 28.2984 43.5091 28.2984 43.5091Z" fill="#E0E0E0"/>
<path d="M28.5039 43.2261C28.5976 43.3836 28.7092 43.5288 28.8361 43.6587L28.9527 43.7922C29.0293 43.8884 29.1174 43.974 29.2149 44.0469C29.1549 43.9345 29.0797 43.8317 28.9915 43.7416L28.8827 43.6142C28.7718 43.4696 28.6446 43.3393 28.5039 43.2261Z" fill="#263238"/>
<path d="M33.1568 43.6587C33.0306 43.5281 32.9191 43.383 32.8246 43.226C32.9684 43.339 33.0988 43.4693 33.2131 43.6142L33.32 43.7416C33.4968 43.4424 33.3317 42.9693 33.2539 42.943C33.1762 42.9167 33.1141 43.0198 33.1141 43.0198C33.1141 43.0198 33.0364 42.7631 32.9431 42.757C32.8499 42.7509 32.8013 42.9066 32.8013 42.9066C32.8013 42.9066 32.5701 42.6761 32.4536 42.8177C32.337 42.9592 32.5371 43.1553 32.5371 43.1553C32.5371 43.1553 32.3545 43.1553 32.3817 43.2988C32.4089 43.4424 32.6187 43.501 32.6187 43.501C32.4866 43.5333 32.5041 43.6081 32.5041 43.6081C32.6983 43.9377 33.217 43.8103 33.2811 43.784L33.1568 43.6587Z" fill="#E0E0E0"/>
<path d="M32.8242 43.2261C32.9187 43.383 33.0302 43.5282 33.1564 43.6587L33.2749 43.7922C33.3506 43.8886 33.4381 43.9743 33.5352 44.0469C33.4752 43.9345 33.4 43.8317 33.3118 43.7416L33.205 43.6142C33.0931 43.4698 32.9653 43.3395 32.8242 43.2261Z" fill="#263238"/>
<path d="M34.2841 50.4049L34.1675 50.2734C34.0406 50.1436 33.929 49.9983 33.8353 49.8408C33.9755 49.9546 34.1026 50.0849 34.2142 50.229L34.321 50.3563C34.4978 50.0571 34.3346 49.584 34.2569 49.5578C34.1792 49.5315 34.117 49.6346 34.117 49.6346C34.117 49.6346 34.0374 49.3778 33.9461 49.3718C33.8548 49.3657 33.8023 49.5214 33.8023 49.5214C33.8023 49.5214 33.5711 49.2889 33.4546 49.4324C33.338 49.5759 33.5381 49.77 33.5381 49.77C33.5381 49.77 33.3574 49.77 33.3846 49.9136C33.4118 50.0571 33.6216 50.1157 33.6216 50.1157C33.4895 50.1481 33.507 50.2229 33.507 50.2229C33.7091 50.5605 34.218 50.4372 34.2841 50.4049Z" fill="#E0E0E0"/>
<path d="M33.835 49.8413C33.9287 49.9988 34.0402 50.1441 34.1672 50.274L34.2837 50.4054C34.3589 50.5036 34.4472 50.5901 34.546 50.6621C34.484 50.5506 34.4082 50.448 34.3206 50.3568L34.2138 50.2295C34.1022 50.0854 33.9751 49.9551 33.835 49.8413Z" fill="#263238"/>
<path d="M28.6692 54.653C28.5895 54.6247 28.5293 54.7318 28.5293 54.7318C28.5293 54.7318 28.4496 54.473 28.3583 54.467C28.267 54.4609 28.2165 54.6166 28.2165 54.6166C28.2165 54.6166 27.9834 54.3861 27.8668 54.5276C27.7503 54.6691 27.9504 54.8652 27.9504 54.8652C27.9504 54.8652 27.828 54.8652 27.8008 54.9502C27.9951 55.029 28.2049 55.1018 28.4108 55.1685C28.3449 55.1005 28.2898 55.022 28.2476 54.936C28.3481 55.0112 28.4383 55.1003 28.5157 55.2009L28.7974 55.2817C28.8557 55.0007 28.7333 54.6752 28.6692 54.653Z" fill="#E0E0E0"/>
<path d="M28.249 54.9355C28.2912 55.0216 28.3463 55.1001 28.4122 55.168L28.5171 55.2004C28.4398 55.0998 28.3496 55.0107 28.249 54.9355Z" fill="#263238"/>
<path d="M37.3526 45.8583C37.3332 45.9108 37.3099 45.9654 37.2866 46.024C37.2271 46.1988 37.1482 46.3657 37.0515 46.5214C37.0892 46.3398 37.1486 46.1639 37.2283 45.9978L37.2905 45.8481C36.9563 45.8097 36.6164 46.1595 36.6261 46.2525C36.6358 46.3455 36.7523 46.3516 36.7523 46.3516C36.7523 46.3516 36.5581 46.5355 36.5969 46.6245C36.6358 46.7134 36.7912 46.6952 36.7912 46.6952C36.7912 46.6952 36.6882 47.0106 36.8611 47.0612C37.034 47.1117 37.1195 46.8388 37.1195 46.8388C37.1195 46.8388 37.1992 47.0086 37.3138 46.9237C37.4284 46.8388 37.3973 46.6103 37.3973 46.6103C37.4809 46.7215 37.5391 46.673 37.5391 46.673C37.7315 46.3354 37.407 45.9068 37.3526 45.8583Z" fill="#E0E0E0"/>
<path d="M37.0518 46.5214C37.1485 46.3657 37.2274 46.1988 37.2868 46.024C37.3101 45.9654 37.3334 45.9108 37.3529 45.8583C37.4053 45.7455 37.4426 45.6258 37.4636 45.5024C37.3924 45.6098 37.3343 45.7259 37.2907 45.8482L37.2285 45.9978C37.1488 46.1639 37.0894 46.3398 37.0518 46.5214Z" fill="#263238"/>
<path d="M25.3961 45.2316C25.3767 45.2842 25.3553 45.3387 25.3301 45.3974C25.2715 45.5725 25.1926 45.7396 25.095 45.8947C25.1348 45.7138 25.1941 45.5382 25.2718 45.3711C25.2932 45.3185 25.3145 45.268 25.3359 45.2215C24.9998 45.181 24.6618 45.5328 24.6695 45.6258C24.6773 45.7188 24.7978 45.7229 24.7978 45.7229C24.7978 45.7229 24.6035 45.9089 24.6404 45.9978C24.6773 46.0868 24.8347 46.0666 24.8347 46.0666C24.8347 46.0666 24.7317 46.384 24.9046 46.4345C25.0775 46.4851 25.163 46.2121 25.163 46.2121C25.163 46.2121 25.2426 46.3819 25.3573 46.297C25.4719 46.2121 25.4389 45.9837 25.4389 45.9837C25.5224 46.0949 25.5807 46.0463 25.5807 46.0463C25.773 45.7067 25.4466 45.2801 25.3961 45.2316Z" fill="#E0E0E0"/>
<path d="M25.0918 45.8944C25.1894 45.7393 25.2683 45.5722 25.3269 45.3971C25.3521 45.3385 25.3735 45.2839 25.3929 45.2313C25.4455 45.1184 25.4834 44.9988 25.5056 44.8755C25.4326 44.9817 25.3744 45.0981 25.3327 45.2212C25.3113 45.2677 25.29 45.3182 25.2686 45.3708C25.1909 45.5379 25.1316 45.7135 25.0918 45.8944Z" fill="#263238"/>
<path d="M36.6853 43.0642C36.7125 43.2058 36.9223 43.2664 36.9223 43.2664C36.7902 43.2988 36.8077 43.3736 36.8077 43.3736C37.002 43.7051 37.5207 43.5757 37.5848 43.5494C37.546 43.507 37.5071 43.4645 37.4663 43.416C37.3401 43.2855 37.2286 43.1403 37.1341 42.9834C37.2784 43.0957 37.4089 43.2261 37.5226 43.3715L37.6295 43.4989C37.8063 43.1997 37.6411 42.7286 37.5654 42.7003C37.4896 42.672 37.4255 42.7792 37.4255 42.7792C37.4255 42.7792 37.3459 42.5204 37.2526 42.5143C37.1594 42.5083 37.1108 42.6639 37.1108 42.6639C37.1108 42.6639 36.8796 42.4335 36.763 42.575C36.6465 42.7165 36.8466 42.9126 36.8466 42.9126C36.8466 42.9126 36.664 42.9227 36.6853 43.0642Z" fill="#E0E0E0"/>
<path d="M37.1357 42.9912C37.2302 43.1481 37.3417 43.2933 37.4679 43.4239C37.5087 43.4724 37.5476 43.5148 37.5865 43.5573C37.6623 43.6549 37.7505 43.7413 37.8487 43.814C37.787 43.7017 37.7112 43.5983 37.6234 43.5067L37.5165 43.3794C37.4052 43.2344 37.2773 43.1041 37.1357 42.9912Z" fill="#263238"/>
<path d="M29.3163 50.5991L29.1998 50.4657C29.0735 50.3351 28.9621 50.1899 28.8676 50.033C29.0085 50.1466 29.1358 50.2777 29.2464 50.4232C29.2852 50.4657 29.3202 50.5081 29.3552 50.5486C29.532 50.2493 29.3668 49.7783 29.2891 49.75C29.2114 49.7217 29.1493 49.8288 29.1493 49.8288C29.1493 49.8288 29.0715 49.57 28.9783 49.566C28.885 49.562 28.8365 49.7156 28.8365 49.7156C28.8365 49.7156 28.6053 49.4831 28.4868 49.6246C28.3683 49.7661 28.5703 49.9623 28.5703 49.9623C28.5703 49.9623 28.3897 49.9623 28.4169 50.1078C28.444 50.2534 28.6539 50.31 28.6539 50.31C28.5218 50.3423 28.5392 50.4171 28.5392 50.4171C28.7413 50.7548 29.2522 50.6294 29.3163 50.5991Z" fill="#E0E0E0"/>
<path d="M28.8691 50.0332C28.9636 50.1901 29.0751 50.3353 29.2013 50.4659L29.3179 50.5993C29.3948 50.6958 29.4829 50.782 29.5802 50.856C29.5205 50.7428 29.4452 50.6393 29.3568 50.5487C29.3218 50.5083 29.2868 50.4659 29.248 50.4234C29.1373 50.2779 29.0101 50.1468 28.8691 50.0332Z" fill="#263238"/>
<path d="M34.794 54.6485C34.7144 54.6182 34.6541 54.7253 34.6541 54.7253C34.6541 54.7253 34.5745 54.4665 34.4832 54.4625C34.3919 54.4584 34.3414 54.6121 34.3414 54.6121C34.3414 54.6121 34.1082 54.3796 33.9917 54.5231C33.8751 54.6667 34.0752 54.8587 34.0752 54.8587C34.0752 54.8587 33.8945 54.8587 33.9217 55.0043C33.9394 55.068 33.9806 55.1218 34.0364 55.1539C34.1665 55.1115 34.2947 55.065 34.4249 55.0185C34.388 54.9679 34.3686 54.9356 34.3744 54.9315C34.3802 54.9275 34.4132 54.9538 34.4637 55.0043C34.6101 54.949 34.7539 54.8904 34.895 54.8284C34.862 54.7293 34.8231 54.6586 34.794 54.6485Z" fill="#E0E0E0"/>
<path d="M34.4256 55.0184L34.4644 55.0043C34.4139 54.9537 34.3809 54.9254 34.375 54.9315C34.3692 54.9375 34.3886 54.9679 34.4256 55.0184Z" fill="#263238"/>
<path d="M29.0281 46.8027C29.0281 46.7137 28.9038 46.6995 28.9038 46.6995C28.9038 46.6995 29.0981 46.5216 29.0689 46.4307C29.0398 46.3397 28.8747 46.3538 28.8747 46.3538C28.8747 46.3538 28.9893 46.0405 28.8164 45.9859C28.6435 45.9313 28.5522 46.1982 28.5522 46.1982C28.5522 46.1982 28.4784 46.0263 28.3579 46.1052C28.2375 46.184 28.2647 46.4165 28.2647 46.4165C28.185 46.3013 28.1248 46.3478 28.1248 46.3478C27.913 46.6712 28.2239 47.11 28.2763 47.1564C28.2977 47.1059 28.321 47.0513 28.3482 46.9927C28.4128 46.8205 28.497 46.6569 28.5988 46.5055C28.5554 46.6852 28.4902 46.8585 28.4045 47.021L28.3365 47.1706C28.6823 47.2252 29.034 46.8855 29.0281 46.8027Z" fill="#E0E0E0"/>
<path d="M28.6109 46.5093C28.509 46.6607 28.4249 46.8243 28.3603 46.9965C28.3331 47.0551 28.3098 47.1097 28.2884 47.1603C28.2324 47.2714 28.1906 47.3896 28.1641 47.512C28.2405 47.4091 28.3026 47.2954 28.3486 47.1744L28.4166 47.0248C28.5022 46.8623 28.5675 46.689 28.6109 46.5093Z" fill="#263238"/>
<path d="M32.3756 52.2915C32.3445 52.2025 32.1813 52.2147 32.1813 52.2147C32.1813 52.2147 32.2959 51.9013 32.123 51.8467C31.9501 51.7921 31.8588 52.059 31.8588 52.059C31.8588 52.059 31.785 51.8872 31.6646 51.968C31.5441 52.0489 31.5713 52.2773 31.5713 52.2773C31.4917 52.1641 31.4314 52.2086 31.4314 52.2086C31.2197 52.5321 31.5305 52.9708 31.583 53.0173C31.6043 52.9647 31.6276 52.9101 31.6548 52.8515C31.7187 52.6786 31.8036 52.5148 31.9074 52.3643C31.8623 52.5435 31.7971 52.7165 31.7131 52.8798C31.6898 52.9324 31.6684 52.9809 31.6451 53.0294C31.9793 53.08 32.3309 52.7423 32.3251 52.6574C32.3192 52.5725 32.2007 52.5543 32.2007 52.5543C32.2007 52.5543 32.4067 52.3724 32.3756 52.2915Z" fill="#E0E0E0"/>
<path d="M31.9195 52.3599C31.8157 52.5104 31.7308 52.6742 31.6669 52.8471C31.6397 52.9057 31.6164 52.9603 31.595 53.0129C31.5389 53.1232 31.4971 53.2408 31.4707 53.3626C31.5482 53.2604 31.6105 53.1466 31.6553 53.025C31.6786 52.9765 31.6999 52.928 31.7233 52.8754C31.8079 52.7122 31.8738 52.5391 31.9195 52.3599Z" fill="#263238"/>
<path d="M28.5946 40.7678C28.5946 40.6788 28.4722 40.6627 28.4722 40.6627C28.4722 40.6627 28.6664 40.4868 28.6373 40.3958C28.6082 40.3048 28.443 40.319 28.443 40.319C28.443 40.319 28.5577 40.0056 28.3848 39.949C28.2119 39.8924 28.1205 40.1512 28.1205 40.1512C28.1205 40.1512 28.0467 39.9793 27.9263 40.0602C27.8058 40.1411 27.833 40.3695 27.833 40.3695C27.7534 40.2563 27.6932 40.3028 27.6932 40.3028C27.4814 40.6263 27.7922 41.065 27.8447 41.1115C27.8667 41.0589 27.89 41.0043 27.9146 40.9477C27.9803 40.7757 28.0651 40.6122 28.1672 40.4605C28.1234 40.6401 28.0582 40.8134 27.9729 40.976L27.9049 41.1236C28.2507 41.1721 28.6004 40.8426 28.5946 40.7678Z" fill="#E0E0E0"/>
<path d="M28.1792 40.4663C28.0772 40.618 27.9924 40.7815 27.9267 40.9535C27.9021 41.0101 27.8788 41.0647 27.8568 41.1173C27.8008 41.2284 27.759 41.3467 27.7324 41.4691C27.8083 41.365 27.8704 41.2507 27.917 41.1294L27.985 40.9818C28.0702 40.8192 28.1355 40.646 28.1792 40.4663Z" fill="#263238"/>
<path d="M32.8708 46.4646C32.8398 46.3756 32.6766 46.3878 32.6766 46.3878C32.6766 46.3878 32.7892 46.0744 32.6183 46.0198C32.4473 45.9652 32.3521 46.222 32.3521 46.222C32.3521 46.222 32.2803 46.0501 32.1579 46.131C32.0355 46.2119 32.0646 46.4403 32.0646 46.4403C31.985 46.3251 31.9247 46.3716 31.9247 46.3716C31.711 46.6951 32.0219 47.1338 32.0743 47.1803C32.0976 47.1297 32.121 47.0752 32.1462 47.0165C32.2119 46.8445 32.2967 46.6809 32.3988 46.5293C32.3533 46.7083 32.2881 46.8813 32.2045 47.0448L32.1365 47.1944C32.4687 47.245 32.8203 46.9053 32.8145 46.8224C32.8087 46.7396 32.6902 46.7193 32.6902 46.7193C32.6902 46.7193 32.9039 46.5556 32.8708 46.4646Z" fill="#E0E0E0"/>
<path d="M32.4136 46.5435C32.3115 46.6951 32.2268 46.8586 32.1611 47.0307C32.1358 47.0893 32.1125 47.1439 32.0892 47.1944C32.0322 47.3049 31.9909 47.4234 31.9668 47.5462C32.045 47.4427 32.1103 47.3292 32.1611 47.2086L32.2291 47.059C32.3093 46.895 32.3712 46.7221 32.4136 46.5435Z" fill="#263238"/>
<path d="M32.8519 40.9696L32.9238 40.8058C32.9886 40.6333 33.0734 40.4697 33.1764 40.3186C33.1313 40.4978 33.0661 40.6708 32.9821 40.8341C32.9588 40.8867 32.9374 40.9352 32.9141 40.9817C33.2482 41.0343 33.5999 40.6946 33.594 40.6117C33.5882 40.5288 33.4697 40.5066 33.4697 40.5066C33.4697 40.5066 33.664 40.3307 33.6348 40.2397C33.6057 40.1488 33.4406 40.1629 33.4406 40.1629C33.4406 40.1629 33.5552 39.8495 33.3842 39.795C33.2133 39.7404 33.1181 40.0072 33.1181 40.0072C33.1181 40.0072 33.0443 39.8334 32.9238 39.9142C32.8034 39.9951 32.8325 40.2236 32.8325 40.2236C32.7509 40.1103 32.6926 40.1568 32.6926 40.1568C32.4886 40.4783 32.7995 40.917 32.8519 40.9696Z" fill="#E0E0E0"/>
<path d="M33.1773 40.3169C33.0744 40.468 32.9895 40.6316 32.9247 40.8041L32.8529 40.9679C32.7959 41.0783 32.7546 41.1968 32.7305 41.3197C32.8053 41.2152 32.8666 41.101 32.9131 40.98C32.9364 40.9335 32.9578 40.885 32.9811 40.8324C33.0658 40.6692 33.1316 40.4962 33.1773 40.3169Z" fill="#263238"/>
<path d="M32.5483 38.9177C32.4667 38.9339 32.3035 38.9743 32.0781 39.0208C31.2315 39.1947 30.3604 39.1947 29.5138 39.0208C29.2826 38.9743 29.1252 38.9318 29.0378 38.9157C29.0048 38.9157 28.9873 38.9157 28.9854 38.9157C29.1472 39.0013 29.3198 39.0626 29.4982 39.0976C29.9231 39.2051 30.3587 39.2601 30.796 39.2614C31.2332 39.2616 31.6689 39.2073 32.0937 39.0996C32.2714 39.063 32.4438 39.0025 32.6065 38.9197C32.6065 38.9197 32.5832 38.9096 32.5483 38.9177Z" fill="#263238"/>
<path d="M40.3182 45.8945C40.2039 45.9319 40.0938 45.9821 39.9899 46.0441C39.7646 46.1594 39.4382 46.3312 39.0555 46.5395L38.3716 46.9155C37.4158 47.4492 36.6232 47.9041 36.495 48.0092L36.4717 48.0315C36.5174 48.022 36.5613 48.0049 36.6018 47.9809C36.8835 47.8475 37.5926 47.4694 38.4202 47.0085C39.0924 46.6365 39.6791 46.2989 40.0152 46.0947C40.1227 46.0393 40.2243 45.9722 40.3182 45.8945Z" fill="#263238"/>
<path d="M23.3523 45.0493C23.7409 45.484 24.1003 45.8742 24.3703 46.1815L24.4558 46.2785C24.6004 46.4568 24.7541 46.6269 24.9162 46.788C24.889 46.7308 24.8543 46.6777 24.8133 46.6303C24.7453 46.5333 24.6404 46.3958 24.5083 46.226C24.2421 45.8924 23.8574 45.4516 23.4242 44.9725C22.991 44.4933 22.5986 44.0627 22.3208 43.7433C22.1772 43.5647 22.0235 43.3952 21.8604 43.2358C21.8862 43.2929 21.9196 43.346 21.9594 43.3935L21.973 43.4117C22.041 43.5067 22.1401 43.6361 22.2664 43.7918C22.5325 44.1294 22.9172 44.5722 23.3523 45.0493Z" fill="#263238"/>
<path d="M25.928 48.1061C26.0621 48.3791 26.1961 48.5994 26.3166 48.7955C26.4061 48.9479 26.5054 49.0938 26.6138 49.2322C26.6915 49.3293 26.742 49.3758 26.7479 49.3717C26.7537 49.3677 26.6022 49.1696 26.404 48.8056L26.3768 48.7571C26.2738 48.555 26.1398 48.3245 26.0193 48.0677C25.9143 47.7705 25.8699 47.4538 25.8892 47.1377C25.8855 46.8205 25.9355 46.505 26.0368 46.2057C26.1219 45.9614 26.2347 45.7286 26.3729 45.5123C26.608 45.1383 26.7887 44.9321 26.7751 44.9199C26.7237 44.9579 26.6773 45.0028 26.6371 45.0534C26.5205 45.1848 26.4122 45.3239 26.3127 45.4698C26.1635 45.687 26.0408 45.9227 25.9475 46.1714C25.895 46.3205 25.8547 46.4741 25.827 46.6303C25.8038 46.7862 25.7915 46.9436 25.7901 47.1013C25.7892 47.1128 25.7892 47.1243 25.7901 47.1357C25.7665 47.4658 25.8136 47.7973 25.928 48.1061Z" fill="#263238"/>
<path d="M30.2773 41.2933V41.3095C30.2749 41.3199 30.2747 41.3308 30.2769 41.3413C30.2791 41.3517 30.2835 41.3616 30.2899 41.37C30.2963 41.3784 30.3044 41.3853 30.3137 41.3899C30.3229 41.3946 30.3331 41.3971 30.3434 41.3971C30.3537 41.3971 30.3639 41.3946 30.3731 41.3899C30.3824 41.3853 30.3905 41.3784 30.3969 41.37C30.4032 41.3616 30.4077 41.3517 30.4098 41.3413C30.412 41.3308 30.4119 41.3199 30.4094 41.3095V41.2933C30.4094 41.2751 30.4025 41.2576 30.3901 41.2447C30.3777 41.2319 30.3609 41.2246 30.3434 41.2246C30.3259 41.2246 30.3091 41.2319 30.2967 41.2447C30.2843 41.2576 30.2773 41.2751 30.2773 41.2933Z" fill="#263238"/>
<path d="M26.3981 41.4264C26.4151 41.4264 26.4314 41.4194 26.4434 41.4069C26.4554 41.3943 26.4622 41.3774 26.4622 41.3597C26.4622 41.342 26.4554 41.325 26.4434 41.3125C26.4314 41.3 26.4151 41.293 26.3981 41.293C26.3811 41.293 26.3648 41.3 26.3528 41.3125C26.3407 41.325 26.334 41.342 26.334 41.3597C26.334 41.3774 26.3407 41.3943 26.3528 41.4069C26.3648 41.4194 26.3811 41.4264 26.3981 41.4264Z" fill="#263238"/>
<path d="M26.5904 43.3068V43.2926C26.5845 43.2826 26.5762 43.2743 26.5663 43.2685C26.5565 43.2628 26.5453 43.2598 26.534 43.2598C26.5227 43.2598 26.5116 43.2628 26.5017 43.2685C26.4919 43.2743 26.4836 43.2826 26.4777 43.2926V43.3068C26.4039 43.4463 26.6525 43.4463 26.5904 43.3068Z" fill="#263238"/>
<path d="M23.7803 44.2046C23.765 44.2074 23.7511 44.2157 23.7411 44.2281C23.7311 44.2405 23.7256 44.2561 23.7256 44.2723C23.7256 44.2885 23.7311 44.3042 23.7411 44.3166C23.7511 44.329 23.765 44.3373 23.7803 44.34C23.7957 44.3373 23.8096 44.329 23.8196 44.3166C23.8296 44.3042 23.8351 44.2885 23.8351 44.2723C23.8351 44.2561 23.8296 44.2405 23.8196 44.2281C23.8096 44.2157 23.7957 44.2074 23.7803 44.2046Z" fill="#263238"/>
<path d="M31.2232 43.9822V43.9478C31.2204 43.9303 31.2118 43.9144 31.1988 43.903C31.1858 43.8915 31.1693 43.8853 31.1523 43.8853C31.1353 43.8853 31.1188 43.8915 31.1059 43.903C31.0929 43.9144 31.0842 43.9303 31.0814 43.9478V43.9822C31.0639 44.0812 31.2232 44.0812 31.2232 43.9822Z" fill="#263238"/>
<path d="M26.8932 47.6837L26.8835 47.714C26.8466 47.8212 27.0448 47.8232 27.0078 47.714L26.9981 47.6837C26.995 47.6717 26.9881 47.6612 26.9787 47.6537C26.9692 47.6462 26.9576 47.6421 26.9457 47.6421C26.9338 47.6421 26.9222 47.6462 26.9127 47.6537C26.9032 47.6612 26.8964 47.6717 26.8932 47.6837Z" fill="#263238"/>
<path d="M28.91 44.993L28.9275 45.0253C28.9702 45.1001 29.0673 45.0253 29.0362 44.9586L29.0226 44.9222C28.9896 44.8454 28.8653 44.9141 28.91 44.993Z" fill="#263238"/>
<path d="M30.7926 47.1382C30.8127 47.1382 30.8319 47.1299 30.8461 47.1151C30.8603 47.1003 30.8683 47.0802 30.8683 47.0593C30.8683 47.0384 30.8603 47.0183 30.8461 47.0036C30.8319 46.9888 30.8127 46.9805 30.7926 46.9805C30.7725 46.9805 30.7532 46.9888 30.739 47.0036C30.7248 47.0183 30.7168 47.0384 30.7168 47.0593C30.7168 47.0802 30.7248 47.1003 30.739 47.1151C30.7532 47.1299 30.7725 47.1382 30.7926 47.1382Z" fill="#263238"/>
<path d="M33.7486 45.0475C33.7654 45.0446 33.7806 45.0356 33.7916 45.0221C33.8026 45.0086 33.8087 44.9914 33.8087 44.9737C33.8087 44.956 33.8026 44.9388 33.7916 44.9253C33.7806 44.9118 33.7654 44.9028 33.7486 44.8999C33.7318 44.9028 33.7165 44.9118 33.7055 44.9253C33.6945 44.9388 33.6885 44.956 33.6885 44.9737C33.6885 44.9914 33.6945 45.0086 33.7055 45.0221C33.7165 45.0356 33.7318 45.0446 33.7486 45.0475Z" fill="#263238"/>
<path d="M34.556 47.3907H34.5735C34.6434 47.3907 34.6706 47.2977 34.6279 47.2532C34.5851 47.2087 34.4861 47.237 34.4958 47.3098V47.326C34.4958 47.3428 34.5021 47.359 34.5133 47.371C34.5245 47.3831 34.5399 47.3902 34.556 47.3907Z" fill="#263238"/>
<path d="M36.2541 44.431C36.2417 44.4335 36.2305 44.4404 36.2224 44.4506C36.2144 44.4607 36.21 44.4734 36.21 44.4866C36.21 44.4998 36.2144 44.5125 36.2224 44.5227C36.2305 44.5328 36.2417 44.5397 36.2541 44.5422H36.2852C36.3571 44.5422 36.3571 44.4209 36.2852 44.427L36.2541 44.431Z" fill="#263238"/>
<path d="M34.8639 42.4294C34.8794 42.4294 34.8942 42.423 34.9052 42.4116C34.9161 42.4003 34.9222 42.3848 34.9222 42.3688C34.9222 42.3527 34.9161 42.3372 34.9052 42.3259C34.8942 42.3145 34.8794 42.3081 34.8639 42.3081C34.8485 42.3081 34.8337 42.3145 34.8227 42.3259C34.8118 42.3372 34.8057 42.3527 34.8057 42.3688C34.8057 42.3848 34.8118 42.4003 34.8227 42.4116C34.8337 42.423 34.8485 42.4294 34.8639 42.4294Z" fill="#263238"/>
<path d="M35.155 40.5959C35.1704 40.5959 35.1852 40.5895 35.1962 40.5782C35.2071 40.5668 35.2132 40.5514 35.2132 40.5353C35.2132 40.5192 35.2071 40.5038 35.1962 40.4924C35.1852 40.481 35.1704 40.4746 35.155 40.4746C35.1395 40.4746 35.1247 40.481 35.1137 40.4924C35.1028 40.5038 35.0967 40.5192 35.0967 40.5353C35.0967 40.5514 35.1028 40.5668 35.1137 40.5782C35.1247 40.5895 35.1395 40.5959 35.155 40.5959Z" fill="#263238"/>
<path d="M38.9689 45.3003C38.9512 45.3033 38.935 45.3128 38.9233 45.327C38.9117 45.3413 38.9053 45.3594 38.9053 45.3781C38.9053 45.3969 38.9117 45.415 38.9233 45.4292C38.935 45.4435 38.9512 45.453 38.9689 45.456C38.9867 45.453 39.0029 45.4435 39.0145 45.4292C39.0262 45.415 39.0326 45.3969 39.0326 45.3781C39.0326 45.3594 39.0262 45.3413 39.0145 45.327C39.0029 45.3128 38.9867 45.3033 38.9689 45.3003Z" fill="#263238"/>
<path d="M31.1977 49.3415H31.2269C31.2388 49.3382 31.2494 49.3308 31.2569 49.3206C31.2645 49.3103 31.2685 49.2978 31.2685 49.2849C31.2685 49.272 31.2645 49.2595 31.2569 49.2493C31.2494 49.239 31.2388 49.2317 31.2269 49.2283H31.1977C31.1883 49.2229 31.1776 49.2201 31.1668 49.2202C31.156 49.2204 31.1454 49.2235 31.1361 49.2292C31.1267 49.2349 31.119 49.243 31.1137 49.2528C31.1083 49.2626 31.1055 49.2737 31.1055 49.2849C31.1055 49.2962 31.1083 49.3072 31.1137 49.317C31.119 49.3268 31.1267 49.3349 31.1361 49.3406C31.1454 49.3464 31.156 49.3494 31.1668 49.3496C31.1776 49.3498 31.1883 49.347 31.1977 49.3415Z" fill="#263238"/>
<path d="M27.3843 50.8862C27.3938 50.8841 27.4023 50.8786 27.4085 50.8707C27.4146 50.8628 27.4179 50.8529 27.4179 50.8428C27.4179 50.8326 27.4146 50.8228 27.4085 50.8149C27.4023 50.807 27.3938 50.8015 27.3843 50.7993C27.3747 50.8015 27.3662 50.807 27.3601 50.8149C27.3539 50.8228 27.3506 50.8326 27.3506 50.8428C27.3506 50.8529 27.3539 50.8628 27.3601 50.8707C27.3662 50.8786 27.3747 50.8841 27.3843 50.8862Z" fill="#263238"/>
<path d="M28.6764 53.1406L28.6472 53.1608C28.5909 53.1972 28.6259 53.3044 28.6939 53.2761L28.7269 53.2639C28.8163 53.2275 28.7541 53.088 28.6764 53.1406Z" fill="#263238"/>
<path d="M30.5342 51.7514V51.7676C30.5342 51.8565 30.6741 51.8565 30.6682 51.7676V51.7514C30.6682 51.7329 30.6612 51.7152 30.6486 51.7021C30.636 51.689 30.619 51.6816 30.6012 51.6816C30.5834 51.6816 30.5664 51.689 30.5538 51.7021C30.5412 51.7152 30.5342 51.7329 30.5342 51.7514Z" fill="#263238"/>
<path d="M30.7294 54.697L30.7391 54.7091C30.7446 54.7187 30.7524 54.7267 30.7618 54.7323C30.7712 54.7378 30.7818 54.7407 30.7925 54.7407C30.8033 54.7407 30.8139 54.7378 30.8233 54.7323C30.8326 54.7267 30.8404 54.7187 30.846 54.7091V54.697C30.8519 54.6856 30.8549 54.6728 30.8547 54.6598C30.8544 54.6468 30.851 54.6342 30.8446 54.623C30.8382 54.6119 30.8292 54.6026 30.8184 54.5962C30.8075 54.5898 30.7953 54.5864 30.7828 54.5864C30.7704 54.5864 30.7581 54.5898 30.7473 54.5962C30.7364 54.6026 30.7274 54.6119 30.721 54.623C30.7147 54.6342 30.7112 54.6468 30.711 54.6598C30.7107 54.6728 30.7137 54.6856 30.7197 54.697H30.7294Z" fill="#263238"/>
<path d="M33.1998 54.0928C33.1797 54.0928 33.1604 54.1011 33.1462 54.1159C33.132 54.1307 33.124 54.1507 33.124 54.1716C33.124 54.1925 33.132 54.2126 33.1462 54.2274C33.1604 54.2422 33.1797 54.2505 33.1998 54.2505C33.2199 54.2505 33.2392 54.2422 33.2534 54.2274C33.2676 54.2126 33.2756 54.1925 33.2756 54.1716C33.2756 54.1507 33.2676 54.1307 33.2534 54.1159C33.2392 54.1011 33.2199 54.0928 33.1998 54.0928Z" fill="#263238"/>
<path d="M34.5064 51.8018C34.4853 51.8018 34.465 51.8105 34.4501 51.826C34.4351 51.8416 34.4268 51.8627 34.4268 51.8846C34.4268 51.9066 34.4351 51.9277 34.4501 51.9433C34.465 51.9588 34.4853 51.9675 34.5064 51.9675C34.5275 51.9675 34.5478 51.9588 34.5627 51.9433C34.5777 51.9277 34.5861 51.9066 34.5861 51.8846C34.5861 51.8627 34.5777 51.8416 34.5627 51.826C34.5478 51.8105 34.5275 51.8018 34.5064 51.8018Z" fill="#263238"/>
<path d="M27.6732 29.3124C28.2901 28.9467 28.9856 28.7485 29.6955 28.7362C30.1045 28.7372 30.5123 28.7839 30.9117 28.8757C31.9879 29.1122 32.5358 29.7389 32.5358 31.516V32.4602C32.6856 32.4358 32.8389 32.4618 32.9735 32.5346C33.1081 32.6073 33.2168 32.7229 33.2837 32.8645C33.5693 31.8941 33.4974 30.6063 32.7456 29.6439C32.7905 29.7309 32.8251 29.8232 32.8485 29.9189C32.9271 30.1597 32.9125 30.4229 32.8077 30.6528C32.8116 30.4155 32.7928 30.1785 32.7514 29.9452C32.6919 29.7287 32.5987 29.5238 32.4755 29.3386C32.4655 29.3268 32.4544 29.316 32.4425 29.3063L32.427 29.2901C32.3959 29.3346 32.3745 29.3609 32.3667 29.3568C32.359 29.3528 32.3667 29.3164 32.392 29.2598C31.8791 28.7928 31.1526 28.4511 30.1598 28.3318C29.307 28.2328 28.695 28.3419 28.254 28.5542C28.3456 28.5239 28.4423 28.5142 28.5377 28.5259C28.5377 28.5441 28.3648 28.5643 28.1064 28.6735C28.0288 28.707 27.9529 28.7448 27.8791 28.7867C27.532 29.0647 27.2877 29.4589 27.1875 29.9027C27.2785 29.6532 27.4503 29.4444 27.6732 29.3124Z" fill="#263238"/>
<path d="M28.9755 37.1731C29.7003 37.1531 30.4038 36.9135 30.9998 36.4837C30.9998 36.4837 30.5238 37.6664 29.0007 37.5714L28.9852 37.3348C28.9968 37.6502 29.024 38.3801 29.0396 38.9138C29.1173 38.93 29.2844 38.9724 29.5155 39.0189C30.3622 39.1928 31.2333 39.1928 32.0799 39.0189C32.3053 38.9724 32.4684 38.932 32.55 38.9158V37.3955L32.5228 34.2982C32.4559 34.2969 32.3899 34.2818 32.3286 34.2538C32.3286 34.2356 32.3286 33.7605 32.3286 33.3076C31.4602 32.9033 30.2907 31.2414 30.2907 31.2414L30.5529 31.9915C30.2046 32.0561 29.8464 32.033 29.5084 31.9239C29.1704 31.8149 28.8624 31.6231 28.6102 31.3647L28.8531 31.7286C27.8176 31.6114 27.3786 31.1747 27.2076 30.7319C27.1668 31.9025 27.0969 34.1911 27.1454 35.3677C27.1979 36.6353 28.2819 37.0275 28.7559 37.1387C28.8278 37.1561 28.9004 37.1696 28.9735 37.1792L28.9755 37.1731ZM29.908 32.7253C29.908 32.6854 29.9194 32.6463 29.9407 32.613C29.962 32.5798 29.9924 32.5539 30.0279 32.5386C30.0634 32.5233 30.1024 32.5193 30.1401 32.5271C30.1778 32.5349 30.2124 32.5541 30.2396 32.5824C30.2668 32.6107 30.2853 32.6467 30.2928 32.6859C30.3003 32.7251 30.2964 32.7658 30.2817 32.8027C30.267 32.8397 30.2421 32.8712 30.2102 32.8934C30.1782 32.9157 30.1407 32.9275 30.1022 32.9275C30.0523 32.9276 30.0043 32.9077 29.9682 32.8719C29.932 32.8362 29.9105 32.7873 29.908 32.7354V32.7253ZM29.704 32.416C29.7891 32.3425 29.8949 32.2999 30.0054 32.2948C30.1159 32.2897 30.2249 32.3223 30.3159 32.3877C30.3839 32.4383 30.4092 32.4888 30.3975 32.5009C30.3859 32.5131 30.2207 32.418 30.009 32.4282C29.7972 32.4383 29.6535 32.5656 29.6302 32.5373C29.6068 32.509 29.6399 32.4787 29.704 32.4261V32.416ZM29.1872 35.0442C29.2003 34.9754 29.2292 34.911 29.2715 34.8564C29.3138 34.8018 29.3682 34.7587 29.4301 34.7309C29.4972 34.7024 29.5714 34.6967 29.6418 34.7147C29.6787 34.6076 29.6884 34.5247 29.7079 34.5267C29.7273 34.5287 29.7487 34.5853 29.7409 34.6925C29.7402 34.7157 29.737 34.7388 29.7312 34.7612C29.7639 34.7848 29.7899 34.8172 29.8063 34.8549C29.8228 34.8927 29.829 34.9343 29.8244 34.9755C29.8109 35.0272 29.7834 35.0737 29.7452 35.1096C29.7069 35.1454 29.6596 35.1691 29.6088 35.1777C29.5343 35.1918 29.4579 35.1918 29.3834 35.1777C29.3269 35.2001 29.2671 35.2124 29.2066 35.2141C29.1037 35.2141 29.0454 35.1837 29.0493 35.1676C29.0532 35.1514 29.1173 35.1453 29.2086 35.119C29.199 35.1108 29.1917 35.1002 29.1873 35.0881C29.1829 35.0761 29.1815 35.0631 29.1833 35.0503L29.1872 35.0442ZM27.8273 32.879C27.7758 32.879 27.7264 32.8577 27.69 32.8198C27.6535 32.7819 27.6331 32.7304 27.6331 32.6768C27.6331 32.6368 27.6444 32.5978 27.6658 32.5645C27.6871 32.5313 27.7175 32.5053 27.753 32.49C27.7885 32.4747 27.8275 32.4707 27.8652 32.4785C27.9029 32.4863 27.9375 32.5056 27.9647 32.5339C27.9919 32.5621 28.0104 32.5982 28.0179 32.6374C28.0254 32.6766 28.0215 32.7172 28.0068 32.7542C27.9921 32.7911 27.9672 32.8227 27.9353 32.8449C27.9033 32.8671 27.8657 32.879 27.8273 32.879ZM28.0779 32.4787C28.0566 32.507 27.9011 32.3938 27.6894 32.4059C27.4776 32.418 27.3339 32.5414 27.3106 32.5151C27.2873 32.4888 27.3106 32.4504 27.3824 32.3918C27.4675 32.3182 27.5734 32.2757 27.6839 32.2706C27.7943 32.2655 27.9034 32.2981 27.9944 32.3635C28.0643 32.4059 28.0896 32.4565 28.0779 32.4787ZM28.6297 34.4499C28.6091 34.4459 28.5896 34.4371 28.5728 34.4241C28.556 34.4112 28.5422 34.3944 28.5325 34.3751C28.5071 34.2984 28.5071 34.2151 28.5325 34.1385C28.5636 33.9869 28.5986 33.8292 28.6335 33.6634C28.7084 33.2513 28.8136 32.8457 28.9483 32.4504C28.9014 32.8653 28.8254 33.2762 28.721 33.6796C28.6841 33.8454 28.6471 34.0031 28.6122 34.1527C28.5907 34.2106 28.5853 34.2737 28.5966 34.3346C28.6102 34.373 28.6607 34.3771 28.7151 34.3771C28.8301 34.367 28.9459 34.3738 29.059 34.3973C28.9474 34.4281 28.8325 34.4437 28.7171 34.4438C28.688 34.4468 28.6586 34.4462 28.6297 34.4418V34.4499Z" fill="#E3E3E3"/>
<path d="M27.83 32.4785C27.7785 32.4785 27.7291 32.4998 27.6926 32.5377C27.6562 32.5756 27.6357 32.6271 27.6357 32.6807C27.6357 32.7343 27.6562 32.7857 27.6926 32.8236C27.7291 32.8616 27.7785 32.8829 27.83 32.8829C27.8815 32.8829 27.9309 32.8616 27.9674 32.8236C28.0038 32.7857 28.0243 32.7343 28.0243 32.6807C28.0243 32.6271 28.0038 32.5756 27.9674 32.5377C27.9309 32.4998 27.8815 32.4785 27.83 32.4785Z" fill="#263238"/>
<path d="M27.9963 32.3551C27.9053 32.2897 27.7963 32.2571 27.6858 32.2622C27.5753 32.2673 27.4695 32.3099 27.3844 32.3834C27.3203 32.4421 27.2989 32.4926 27.3125 32.5068C27.3261 32.5209 27.4815 32.4057 27.6913 32.3976C27.9011 32.3895 28.0566 32.4987 28.0799 32.4704C28.1032 32.4421 28.0643 32.4057 27.9963 32.3551Z" fill="#263238"/>
<path d="M30.2977 32.7432C30.2977 32.6896 30.2773 32.6381 30.2408 32.6002C30.2044 32.5623 30.155 32.541 30.1034 32.541C30.0519 32.541 30.0025 32.5623 29.9661 32.6002C29.9296 32.6381 29.9092 32.6896 29.9092 32.7432C29.9092 32.7968 29.9296 32.8482 29.9661 32.8861C30.0025 32.9241 30.0519 32.9454 30.1034 32.9454C30.155 32.9454 30.2044 32.9241 30.2408 32.8861C30.2773 32.8482 30.2977 32.7968 30.2977 32.7432Z" fill="#263238"/>
<path d="M30.0097 32.438C30.2195 32.4279 30.3749 32.5411 30.3982 32.5108C30.4216 32.4805 30.3846 32.4481 30.3166 32.3976C30.2256 32.3322 30.1166 32.2996 30.0061 32.3047C29.8956 32.3098 29.7898 32.3524 29.7047 32.4259C29.6406 32.4825 29.6192 32.5351 29.6328 32.5472C29.6464 32.5593 29.7999 32.4461 30.0097 32.438Z" fill="#263238"/>
<path d="M28.7173 34.3749C28.6629 34.3749 28.6124 34.3749 28.5988 34.3325C28.5875 34.2715 28.5929 34.2085 28.6144 34.1505C28.6493 34.0009 28.6863 33.8432 28.7232 33.6774C28.8276 33.274 28.9036 32.8632 28.9505 32.4482C28.8158 32.8436 28.7106 33.2491 28.6357 33.6613C28.6008 33.827 28.5658 33.9847 28.5347 34.1364C28.5093 34.213 28.5093 34.2963 28.5347 34.3729C28.5444 34.3922 28.5582 34.409 28.575 34.422C28.5918 34.4349 28.6113 34.4437 28.6319 34.4477C28.6622 34.4518 28.6929 34.4518 28.7232 34.4477C28.8386 34.4477 28.9535 34.432 29.0651 34.4012C28.951 34.3753 28.8339 34.3665 28.7173 34.3749Z" fill="#263238"/>
<path d="M30.9979 36.4834C30.4019 36.9132 29.6985 37.1528 28.9736 37.1728L28.9833 37.3305L28.9989 37.567C30.522 37.6661 30.9979 36.4834 30.9979 36.4834Z" fill="#4E72D1"/>
<path d="M29.2062 35.1311C29.1149 35.1574 29.0469 35.1614 29.0469 35.1796C29.0469 35.1978 29.1013 35.2282 29.2042 35.2261C29.2647 35.2245 29.3245 35.2122 29.381 35.1897C29.4528 35.1629 29.5188 35.1217 29.5753 35.0684C29.6569 34.988 29.7131 34.8836 29.7365 34.7692C29.7423 34.7468 29.7456 34.7237 29.7462 34.7005C29.7462 34.5933 29.7288 34.5327 29.7132 34.5347C29.6977 34.5367 29.6841 34.6156 29.6472 34.7227C29.613 34.8224 29.5555 34.9115 29.4799 34.9821C29.4042 35.0527 29.3128 35.1026 29.2139 35.1271L29.2062 35.1311Z" fill="#263238"/>
<path d="M32.6695 34.298C32.7162 34.1322 32.825 34.0837 32.825 34.0958C32.825 34.108 32.7686 34.1686 32.7434 34.298C33.0775 34.2717 33.4816 34.0958 33.4155 33.3701C33.4022 33.1923 33.3567 33.0187 33.2815 32.8586C33.2145 32.717 33.1059 32.6014 32.9713 32.5286C32.8367 32.4559 32.6834 32.4298 32.5335 32.4542V33.3721C32.4665 33.355 32.4014 33.3306 32.3393 33.2993C32.3393 33.7522 32.3296 34.2273 32.3393 34.2454C32.4006 34.2735 32.4666 34.2886 32.5335 34.2899C32.5786 34.2961 32.6241 34.2988 32.6695 34.298ZM32.6695 32.8687C32.6992 32.8404 32.7382 32.8252 32.7783 32.8262C32.8262 32.8312 32.8721 32.8489 32.9115 32.8775C32.9509 32.9062 32.9827 32.9449 33.0037 32.99C33.0623 33.0883 33.097 33.2 33.1047 33.3155C33.1206 33.4212 33.106 33.5295 33.0628 33.6267C33.0195 33.7238 32.9496 33.8055 32.8619 33.8613C32.8308 33.8755 32.7969 33.8816 32.7631 33.8791C32.7292 33.8767 32.6965 33.8657 32.6676 33.8472C32.6307 33.8229 32.621 33.7966 32.6249 33.7926C32.6287 33.7885 32.6462 33.8067 32.6812 33.8189C32.7307 33.8345 32.7842 33.8302 32.8308 33.8067C32.9017 33.7511 32.9571 33.6769 32.9912 33.5916C33.0254 33.5063 33.0371 33.4131 33.0251 33.3215C33.0186 33.2189 32.9893 33.1193 32.9396 33.0304C32.9258 32.9939 32.9038 32.9614 32.8754 32.9357C32.847 32.91 32.813 32.8919 32.7764 32.8828C32.7526 32.8791 32.7283 32.8841 32.7078 32.897C32.6872 32.9099 32.6716 32.93 32.6637 32.9536C32.6521 32.9879 32.6637 33.0102 32.6637 33.0142C32.6637 33.0183 32.6365 32.996 32.6423 32.9455C32.6478 32.9219 32.6592 32.9003 32.6754 32.8828L32.6695 32.8687Z" fill="#E3E3E3"/>
<path d="M32.6638 33.0204C32.6638 33.0204 32.6638 32.9941 32.6638 32.9597C32.6707 32.9342 32.6864 32.9122 32.7079 32.898C32.7294 32.8838 32.7553 32.8784 32.7804 32.8829C32.8172 32.8915 32.8514 32.9092 32.8802 32.9345C32.9089 32.9599 32.9314 32.9921 32.9455 33.0285C32.9953 33.1173 33.0245 33.217 33.031 33.3196C33.043 33.4111 33.0313 33.5044 32.9972 33.5896C32.963 33.6749 32.9076 33.7492 32.8367 33.8048C32.7901 33.8283 32.7367 33.8326 32.6871 33.8169C32.6522 33.8048 32.6366 33.7866 32.6308 33.7906C32.625 33.7947 32.6308 33.821 32.6735 33.8452C32.7024 33.8638 32.7352 33.8747 32.769 33.8772C32.8028 33.8797 32.8367 33.8735 32.8678 33.8594C32.9556 33.8035 33.0255 33.7219 33.0687 33.6247C33.1119 33.5276 33.1265 33.4193 33.1107 33.3135C33.1029 33.1981 33.0682 33.0864 33.0096 32.988C32.9886 32.943 32.9569 32.9043 32.9174 32.8756C32.878 32.8469 32.8322 32.8293 32.7843 32.8243C32.7441 32.8232 32.7051 32.8385 32.6755 32.8667C32.6552 32.8881 32.6423 32.9158 32.6386 32.9456C32.6366 33.0022 32.6619 33.0224 32.6638 33.0204Z" fill="#4E72D1"/>
<path d="M28.8549 31.7264L28.612 31.3625C28.8642 31.6209 29.1721 31.8127 29.5101 31.9217C29.8481 32.0307 30.2063 32.0539 30.5547 31.9893L30.2925 31.2392C30.2925 31.2392 31.4581 32.9071 32.3304 33.3054C32.3925 33.3367 32.4576 33.3611 32.5246 33.3782V31.5162C32.5246 29.7391 31.9768 29.1124 30.9005 28.8758C30.5011 28.7841 30.0934 28.7373 29.6844 28.7363C28.9745 28.7487 28.279 28.9468 27.662 29.3125C27.4395 29.4441 27.2678 29.652 27.1764 29.9008C27.1098 30.0789 27.0909 30.2725 27.122 30.4608C27.1382 30.553 27.1636 30.6431 27.1977 30.7297C27.3803 31.1725 27.8194 31.6092 28.8549 31.7264Z" fill="#263238"/>
<path d="M32.3661 29.3551C32.3661 29.3551 32.3952 29.3328 32.4263 29.2884C32.5689 29.0645 32.7387 28.8606 32.9314 28.6819C33.1575 28.5026 33.3965 28.3418 33.6463 28.2007C33.3534 28.2487 33.0819 28.39 32.8692 28.605C32.6668 28.782 32.5049 29.0037 32.3952 29.254C32.368 29.3146 32.3602 29.3531 32.3661 29.3551Z" fill="#263238"/>
<path d="M32.4639 29.2964C32.4639 29.2964 32.4639 29.3166 32.4755 29.3368C32.5987 29.5219 32.6919 29.7268 32.7514 29.9433C32.7927 30.1766 32.8116 30.4137 32.8077 30.6509C32.9125 30.4211 32.9271 30.1579 32.8485 29.917C32.8251 29.8213 32.7905 29.729 32.7456 29.6421C32.6271 29.4015 32.4736 29.2802 32.4639 29.2964Z" fill="#4E72D1"/>
<path d="M32.6725 34.2979V34.3222C32.6604 34.3764 32.6588 34.4326 32.6679 34.4874C32.6769 34.5423 32.6963 34.5947 32.725 34.6416C32.7642 34.6974 32.8156 34.7426 32.8751 34.7734C32.9345 34.8042 33.0001 34.8198 33.0665 34.8188C33.1329 34.8178 33.1981 34.8003 33.2566 34.7677C33.3152 34.7351 33.3654 34.6884 33.403 34.6315C33.4306 34.5837 33.4487 34.5307 33.4564 34.4755C33.464 34.4203 33.4611 34.3641 33.4477 34.3101C33.3991 34.1241 33.2787 34.0756 33.2787 34.0877C33.3257 34.1593 33.3594 34.2396 33.3777 34.3242C33.3902 34.4129 33.3715 34.5033 33.3253 34.579C33.2956 34.6217 33.2564 34.6563 33.2111 34.6799C33.1658 34.7035 33.1156 34.7153 33.065 34.7144C33.0146 34.7169 32.9644 34.7066 32.9187 34.6844C32.873 34.6622 32.8332 34.6288 32.8027 34.587C32.7532 34.5135 32.7317 34.4234 32.7425 34.3343C32.7446 34.3206 32.7478 34.3071 32.7522 34.2939C32.7775 34.1665 32.8454 34.1059 32.8338 34.0917C32.8221 34.0776 32.7192 34.1362 32.6725 34.2979Z" fill="#4E72D1"/>
<path d="M28.5362 28.5244C28.4408 28.5127 28.3441 28.5223 28.2526 28.5527C28.1942 28.5664 28.1364 28.5832 28.0797 28.6032C27.7203 28.7304 27.4045 28.9644 27.1715 29.2762C26.9384 29.5881 26.7983 29.9642 26.7684 30.358C26.7472 30.5189 26.7612 30.6827 26.8092 30.8372C26.8266 30.8372 26.8092 30.6532 26.8402 30.3661C26.8803 30.0359 26.9952 29.7203 27.1756 29.4454C27.356 29.1705 27.5966 28.9442 27.8776 28.7852C27.9514 28.7433 28.0273 28.7055 28.1049 28.6719C28.3633 28.5628 28.5382 28.5426 28.5362 28.5244Z" fill="#263238"/>
<path d="M15.31 62.6847C15.5936 60.663 17.6859 59.3509 19.6558 59.2599C21.6257 59.1689 23.5198 59.9614 25.3926 60.6023C27.2654 61.2432 29.3207 61.7365 31.1819 61.0572C33.5345 60.1959 34.9235 57.7295 36.8157 56.0373C38.2565 54.7796 39.9956 53.9481 41.8511 53.6298C43.7066 53.3114 45.6102 53.518 47.3626 54.2279V64.5244H15.0225L15.31 62.6847Z" fill="#4E72D1"/>
<path d="M37.2477 57.4688H26.4424V58.0652H37.2477V57.4688Z" fill="#263238"/>
<path d="M40.8284 58.8721H22.8584V59.4685H40.8284V58.8721Z" fill="#263238"/>
<path d="M15.0225 20.0692C16.7204 22.2931 20.159 23.8559 22.8826 24.05C24.6991 24.1814 26.5077 23.7871 28.3222 23.6133C30.1367 23.4394 32.0619 23.5142 33.6277 24.4786C35.5529 25.6653 36.5787 27.964 38.2902 29.4742C40.7982 31.6981 44.7963 31.8416 47.4442 29.8017V19.7417L15.0225 20.0692ZM24.8137 23.4819H21.6587C21.5725 23.4868 21.4862 23.4734 21.4051 23.4425C21.3239 23.4116 21.2498 23.3638 21.187 23.302C21.1243 23.2402 21.0743 23.1658 21.0401 23.0832C21.006 23.0006 20.9883 22.9117 20.9883 22.8218C20.9883 22.7319 21.006 22.6429 21.0401 22.5604C21.0743 22.4778 21.1243 22.4033 21.187 22.3416C21.2498 22.2798 21.3239 22.232 21.4051 22.201C21.4862 22.1701 21.5725 22.1567 21.6587 22.1617H24.8137C24.9758 22.171 25.1284 22.2446 25.24 22.3674C25.3516 22.4902 25.4138 22.6528 25.4138 22.8218C25.4138 22.9908 25.3516 23.1534 25.24 23.2761C25.1284 23.3989 24.9758 23.4725 24.8137 23.4819ZM31.4635 23.4819C31.2952 23.4819 31.1307 23.4299 30.9908 23.3326C30.8509 23.2353 30.7418 23.097 30.6774 22.9352C30.613 22.7734 30.5962 22.5954 30.629 22.4236C30.6618 22.2518 30.7429 22.094 30.8619 21.9702C30.9809 21.8464 31.1325 21.762 31.2975 21.7279C31.4626 21.6937 31.6337 21.7112 31.7892 21.7783C31.9447 21.8453 32.0775 21.9588 32.171 22.1044C32.2645 22.25 32.3144 22.4212 32.3144 22.5964C32.3144 22.713 32.2923 22.8285 32.2493 22.9362C32.2063 23.0439 32.1433 23.1417 32.0639 23.2239C31.9844 23.3062 31.8902 23.3714 31.7865 23.4156C31.6828 23.4599 31.5717 23.4824 31.4597 23.4819H31.4635ZM41.245 23.4819H38.0882C37.926 23.4725 37.7734 23.3989 37.6618 23.2761C37.5502 23.1534 37.488 22.9908 37.488 22.8218C37.488 22.6528 37.5502 22.4902 37.6618 22.3674C37.7734 22.2446 37.926 22.171 38.0882 22.1617H41.2412C41.4033 22.171 41.5559 22.2446 41.6675 22.3674C41.7791 22.4902 41.8413 22.6528 41.8413 22.8218C41.8413 22.9908 41.7791 23.1534 41.6675 23.2761C41.5559 23.3989 41.4033 23.4725 41.2412 23.4819H41.245Z" fill="#4E72D1"/>
<path opacity="0.5" d="M15.0225 20.0692C16.7204 22.2931 20.159 23.8559 22.8826 24.05C24.6991 24.1814 26.5077 23.7871 28.3222 23.6133C30.1367 23.4394 32.0619 23.5142 33.6277 24.4786C35.5529 25.6653 36.5787 27.964 38.2902 29.4742C40.7982 31.6981 44.7963 31.8416 47.4442 29.8017V19.7417L15.0225 20.0692ZM24.8137 23.4819H21.6587C21.5725 23.4868 21.4862 23.4734 21.4051 23.4425C21.3239 23.4116 21.2498 23.3638 21.187 23.302C21.1243 23.2402 21.0743 23.1658 21.0401 23.0832C21.006 23.0006 20.9883 22.9117 20.9883 22.8218C20.9883 22.7319 21.006 22.6429 21.0401 22.5604C21.0743 22.4778 21.1243 22.4033 21.187 22.3416C21.2498 22.2798 21.3239 22.232 21.4051 22.201C21.4862 22.1701 21.5725 22.1567 21.6587 22.1617H24.8137C24.9758 22.171 25.1284 22.2446 25.24 22.3674C25.3516 22.4902 25.4138 22.6528 25.4138 22.8218C25.4138 22.9908 25.3516 23.1534 25.24 23.2761C25.1284 23.3989 24.9758 23.4725 24.8137 23.4819ZM31.4635 23.4819C31.2952 23.4819 31.1307 23.4299 30.9908 23.3326C30.8509 23.2353 30.7418 23.097 30.6774 22.9352C30.613 22.7734 30.5962 22.5954 30.629 22.4236C30.6618 22.2518 30.7429 22.094 30.8619 21.9702C30.9809 21.8464 31.1325 21.762 31.2975 21.7279C31.4626 21.6937 31.6337 21.7112 31.7892 21.7783C31.9447 21.8453 32.0775 21.9588 32.171 22.1044C32.2645 22.25 32.3144 22.4212 32.3144 22.5964C32.3144 22.713 32.2923 22.8285 32.2493 22.9362C32.2063 23.0439 32.1433 23.1417 32.0639 23.2239C31.9844 23.3062 31.8902 23.3714 31.7865 23.4156C31.6828 23.4599 31.5717 23.4824 31.4597 23.4819H31.4635ZM41.245 23.4819H38.0882C37.926 23.4725 37.7734 23.3989 37.6618 23.2761C37.5502 23.1534 37.488 22.9908 37.488 22.8218C37.488 22.6528 37.5502 22.4902 37.6618 22.3674C37.7734 22.2446 37.926 22.171 38.0882 22.1617H41.2412C41.4033 22.171 41.5559 22.2446 41.6675 22.3674C41.7791 22.4902 41.8413 22.6528 41.8413 22.8218C41.8413 22.9908 41.7791 23.1534 41.6675 23.2761C41.5559 23.3989 41.4033 23.4725 41.2412 23.4819H41.245Z" fill="white"/>
<path d="M32.7448 15.205H30.1727C29.6338 15.205 29.1169 14.9822 28.7358 14.5856C28.3547 14.189 28.1406 13.6512 28.1406 13.0903C28.1406 12.5294 28.3547 11.9916 28.7358 11.595C29.1169 11.1984 29.6338 10.9756 30.1727 10.9756H32.7448C33.2838 10.9756 33.8006 11.1984 34.1817 11.595C34.5628 11.9916 34.7769 12.5294 34.7769 13.0903C34.7769 13.6512 34.5628 14.189 34.1817 14.5856C33.8006 14.9822 33.2838 15.205 32.7448 15.205ZM30.1727 11.7843C29.8398 11.7843 29.5206 11.9219 29.2853 12.1668C29.0499 12.4117 28.9177 12.7439 28.9177 13.0903C28.9177 13.4367 29.0499 13.7689 29.2853 14.0138C29.5206 14.2587 29.8398 14.3963 30.1727 14.3963H32.7448C33.0777 14.3963 33.3969 14.2587 33.6322 14.0138C33.8676 13.7689 33.9998 13.4367 33.9998 13.0903C33.9998 12.7439 33.8676 12.4117 33.6322 12.1668C33.3969 11.9219 33.0777 11.7843 32.7448 11.7843H30.1727Z" fill="#263238"/>
<path d="M30.7831 15.6338C30.7831 15.6338 30.482 17.6009 30.3518 18.0315C30.2217 18.4622 29.5903 20.2251 29.7865 21.2865C29.9827 22.3479 30.5131 22.9281 31.5194 22.8189L31.5427 22.2124C31.5427 22.2124 30.482 22.2124 30.4373 21.331C30.3926 20.4495 30.6316 19.0242 31.1328 18.5269C31.2772 18.3751 31.4717 18.2862 31.6768 18.2782V15.6338H30.7831Z" fill="#455A64"/>
<path d="M30.8944 17.2856H29.9094C29.8194 17.2854 29.7303 17.3036 29.6471 17.3392C29.5639 17.3749 29.4883 17.4273 29.4246 17.4934C29.3609 17.5595 29.3104 17.638 29.2759 17.7245C29.2414 17.811 29.2236 17.9037 29.2236 17.9973C29.2236 18.0909 29.2414 18.1836 29.2759 18.2701C29.3104 18.3566 29.3609 18.4351 29.4246 18.5012C29.4883 18.5673 29.5639 18.6197 29.6471 18.6553C29.7303 18.691 29.8194 18.7092 29.9094 18.7089H30.6593L30.8944 17.2856Z" fill="#455A64"/>
<path d="M30.4502 14.2085V15.4053H30.6814V15.8521H32.2278V15.468H32.4667V14.2085H30.4502Z" fill="#263238"/>
<path d="M32.1119 13.7715H30.7559V14.4872H32.1119V13.7715Z" fill="#263238"/>
</svg>
