<svg width="74" height="74" viewBox="0 0 74 74" fill="none" xmlns="http://www.w3.org/2000/svg">
<path d="M53.6799 63.9479C50.8318 65.74 47.712 67.0585 44.4419 67.8521C36.6116 69.7916 28.3379 68.7076 21.2715 64.8165C14.2051 60.9255 8.86536 54.5134 6.3176 46.8593C3.76984 39.2053 4.20134 30.8722 7.52603 23.5222C10.8507 16.1723 16.8242 10.346 24.2547 7.20561C31.6852 4.06523 40.0266 3.84164 47.6147 6.57946C55.2028 9.31728 61.4798 14.8152 65.1934 21.9765C68.9071 29.1378 69.7844 37.4358 67.6503 45.2153C65.5163 52.9948 60.5277 59.6838 53.6799 63.9479Z" fill="#4E72D1"/>
<path d="M52.3022 61.7393C47.0253 65.0156 40.8472 66.5384 34.6522 66.0898C28.4573 65.6412 22.563 63.2441 17.8133 59.2417C13.0635 55.2393 9.70178 49.8368 8.20932 43.8076C6.71687 37.7783 7.17021 31.4315 9.50442 25.6755C11.8386 19.9196 15.934 15.0498 21.2044 11.763C26.4748 8.47632 32.6498 6.94128 38.8457 7.37766C45.0416 7.81405 50.9406 10.1995 55.6982 14.1925C60.4558 18.1855 63.8282 23.5814 65.3326 29.6076C66.882 35.6528 66.4526 42.0355 64.1074 47.8187C61.7621 53.6019 57.6246 58.4808 52.3022 61.7393Z" fill="white"/>
<path d="M45.6696 33.3285C45.6755 35.1002 45.1561 36.8339 44.1769 38.3105C43.1977 39.7871 41.8027 40.9402 40.1683 41.6241C38.5338 42.308 36.7333 42.492 34.9943 42.1529C33.2553 41.8137 31.6559 40.9666 30.3983 39.7186C29.1407 38.4706 28.2813 36.8778 27.9287 35.1415C27.5761 33.4052 27.7463 31.6033 28.4176 29.9636C29.0889 28.324 30.2312 26.9201 31.7002 25.9296C33.1692 24.939 34.8989 24.4063 36.6706 24.3985C37.848 24.3934 39.0148 24.6204 40.1045 25.0665C41.1941 25.5126 42.1851 26.1691 43.0208 26.9984C43.8566 27.8278 44.5207 28.8137 44.9752 29.8998C45.4297 30.986 45.6656 32.1511 45.6696 33.3285Z" fill="#4E72D1"/>
<path d="M52.2851 58.0496L52.2999 61.7393C47.6545 64.6378 42.2927 66.1829 36.8172 66.201C31.3418 66.219 25.9699 64.7092 21.3055 61.8413L21.3015 58.1534C21.2946 56.119 21.6886 54.1031 22.4609 52.2209C23.2331 50.3388 24.3685 48.6272 25.8022 47.1838C27.2359 45.7404 28.9399 44.5936 30.8169 43.8088C32.6938 43.0239 34.707 42.6165 36.7414 42.6097C38.7758 42.6028 40.7916 42.9968 42.6738 43.769C44.556 44.5413 46.2676 45.6767 47.711 47.1104C49.1543 48.5441 50.3012 50.2481 51.086 52.1251C51.8708 54.002 52.2783 56.0152 52.2851 58.0496Z" fill="#4E72D1"/>
</svg>
