<svg width="74" height="74" viewBox="0 0 74 74" fill="none" xmlns="http://www.w3.org/2000/svg">
<path d="M54.1799 64.1827C51.3318 65.9749 48.212 67.2934 44.9419 68.087C37.1116 70.0264 28.8379 68.9425 21.7715 65.0514C14.7051 61.1603 9.36536 54.7482 6.8176 47.0942C4.26984 39.4402 4.70134 31.107 8.02603 23.7571C11.3507 16.4072 17.3242 10.5809 24.7547 7.44047C32.1852 4.30009 40.5266 4.07651 48.1147 6.81433C55.7028 9.55215 61.9798 15.0501 65.6934 22.2114C69.4071 29.3726 70.2844 37.6707 68.1503 45.4502C66.0163 53.2297 61.0277 59.9187 54.1799 64.1827Z" fill="#4E72D1"/>
<path d="M52.8012 61.9744C47.5244 65.2507 41.3463 66.7735 35.1513 66.3249C28.9563 65.8762 23.062 63.4792 18.3123 59.4768C13.5625 55.4744 10.2008 50.0719 8.70835 44.0426C7.21589 38.0134 7.66924 31.6665 10.0034 25.9106C12.3376 20.1547 16.433 15.2848 21.7034 11.9981C26.9738 8.71137 33.1489 7.17632 39.3447 7.61271C45.5406 8.0491 51.4396 10.4345 56.1972 14.4275C60.9549 18.4205 64.3272 23.8164 65.8316 29.8427C67.381 35.8879 66.9516 42.2706 64.6064 48.0537C62.2611 53.8369 58.1236 58.7159 52.8012 61.9744Z" fill="white"/>
<path d="M46.1686 33.5633C46.1746 35.335 45.6551 37.0687 44.6759 38.5453C43.6967 40.0219 42.3017 41.175 40.6673 41.8589C39.0329 42.5428 37.2323 42.7268 35.4933 42.3877C33.7544 42.0485 32.1549 41.2014 30.8973 39.9534C29.6397 38.7054 28.7803 37.1126 28.4277 35.3763C28.0752 33.64 28.2453 31.8381 28.9166 30.1984C29.5879 28.5588 30.7302 27.1549 32.1992 26.1644C33.6682 25.1738 35.3979 24.6411 37.1696 24.6334C38.347 24.6282 39.5139 24.8552 40.6035 25.3013C41.6931 25.7474 42.6841 26.4039 43.5198 27.2332C44.3556 28.0626 45.0197 29.0485 45.4742 30.1346C45.9287 31.2208 46.1647 32.3859 46.1686 33.5633Z" fill="#D2DCF4"/>
<path d="M52.7861 58.2844L52.8009 61.9742C48.1555 64.8727 42.7936 66.4178 37.3182 66.4358C31.8427 66.4539 26.4708 64.9441 21.8065 62.0762L21.8024 58.3882C21.7956 56.3538 22.1896 54.338 22.9618 52.4558C23.7341 50.5736 24.8695 48.862 26.3032 47.4186C27.7369 45.9753 29.4409 44.8285 31.3179 44.0436C33.1948 43.2588 35.208 42.8513 37.2424 42.8445C39.2768 42.8377 41.2926 43.2317 43.1748 44.0039C45.0569 44.7761 46.7686 45.9115 48.2119 47.3453C49.6553 48.779 50.8021 50.483 51.587 52.3599C52.3718 54.2369 52.7793 56.25 52.7861 58.2844Z" fill="#D2DCF4"/>
<line x1="61.8048" y1="18.9721" x2="18.2851" y2="60.7851" stroke="#4E72D1" stroke-width="7"/>
</svg>
