<svg width="24" height="24" viewBox="0 0 24 24" fill="none" xmlns="http://www.w3.org/2000/svg">
<g id="fluent:people-20-regular">
<path id="Vector" d="M5.40078 8.09995C5.40078 7.38387 5.68524 6.69711 6.19159 6.19076C6.69794 5.68441 7.3847 5.39995 8.10078 5.39995C8.81687 5.39995 9.50362 5.68441 10.01 6.19076C10.5163 6.69711 10.8008 7.38387 10.8008 8.09995C10.8008 8.81604 10.5163 9.50279 10.01 10.0091C9.50362 10.5155 8.81687 10.8 8.10078 10.8C7.3847 10.8 6.69794 10.5155 6.19159 10.0091C5.68524 9.50279 5.40078 8.81604 5.40078 8.09995ZM8.10078 4.19995C7.06644 4.19995 6.07446 4.61084 5.34306 5.34223C4.61167 6.07363 4.20078 7.06561 4.20078 8.09995C4.20078 9.1343 4.61167 10.1263 5.34306 10.8577C6.07446 11.5891 7.06644 12 8.10078 12C9.13513 12 10.1271 11.5891 10.8585 10.8577C11.5899 10.1263 12.0008 9.1343 12.0008 8.09995C12.0008 7.06561 11.5899 6.07363 10.8585 5.34223C10.1271 4.61084 9.13513 4.19995 8.10078 4.19995ZM14.9252 18.174C15.5708 18.438 16.3832 18.6 17.4008 18.6C19.658 18.6 20.906 17.7984 21.5636 16.8792C21.9074 16.3972 22.1226 15.8355 22.1888 15.2472C22.1947 15.1925 22.1987 15.1377 22.2008 15.0828V15C22.2008 14.7636 22.1542 14.5295 22.0638 14.3111C21.9733 14.0927 21.8407 13.8943 21.6736 13.7272C21.5064 13.56 21.308 13.4274 21.0896 13.337C20.8712 13.2465 20.6372 13.2 20.4008 13.2H14.8448C15.1328 13.548 15.3488 13.9548 15.4748 14.4H20.4008C20.5599 14.4 20.7125 14.4632 20.825 14.5757C20.9376 14.6882 21.0008 14.8408 21.0008 15V15.0648L20.9948 15.1248C20.9497 15.5055 20.8094 15.8687 20.5868 16.1808C20.1944 16.7316 19.3424 17.4 17.4008 17.4C16.5224 17.4 15.8672 17.2632 15.3764 17.0628C15.278 17.3988 15.1352 17.778 14.9252 18.174ZM1.80078 15.6C1.80078 14.9634 2.05364 14.353 2.50372 13.9029C2.95381 13.4528 3.56426 13.2 4.20078 13.2H12.0008C12.6373 13.2 13.2477 13.4528 13.6978 13.9029C14.1479 14.353 14.4008 14.9634 14.4008 15.6V15.7008L14.3984 15.7488L14.3864 15.9108C14.3013 16.6884 14.0251 17.433 13.5824 18.078C12.7412 19.296 11.1164 20.4 8.10078 20.4C5.08518 20.4 3.46038 19.296 2.61918 18.0792C2.17626 17.4338 1.90004 16.6888 1.81518 15.9108C1.80834 15.8409 1.80353 15.7709 1.80078 15.7008V15.6ZM3.00078 15.672V15.6936L3.00918 15.7932C3.0743 16.3684 3.27949 16.9189 3.60678 17.3964C4.19118 18.2412 5.41638 19.2 8.10078 19.2C10.7852 19.2 12.0104 18.2412 12.5948 17.3964C12.9221 16.9189 13.1273 16.3684 13.1924 15.7932C13.1972 15.7476 13.1996 15.7144 13.1996 15.6936L13.2008 15.6732V15.6C13.2008 15.2817 13.0744 14.9765 12.8493 14.7514C12.6243 14.5264 12.319 14.4 12.0008 14.4H4.20078C3.88252 14.4 3.5773 14.5264 3.35225 14.7514C3.12721 14.9765 3.00078 15.2817 3.00078 15.6V15.672ZM15.6008 8.99995C15.6008 8.52256 15.7904 8.06472 16.128 7.72716C16.4656 7.38959 16.9234 7.19995 17.4008 7.19995C17.8782 7.19995 18.336 7.38959 18.6736 7.72716C19.0111 8.06472 19.2008 8.52256 19.2008 8.99995C19.2008 9.47734 19.0111 9.93518 18.6736 10.2727C18.336 10.6103 17.8782 10.8 17.4008 10.8C16.9234 10.8 16.4656 10.6103 16.128 10.2727C15.7904 9.93518 15.6008 9.47734 15.6008 8.99995ZM17.4008 5.99995C16.6051 5.99995 15.8421 6.31602 15.2795 6.87863C14.7169 7.44124 14.4008 8.2043 14.4008 8.99995C14.4008 9.7956 14.7169 10.5587 15.2795 11.1213C15.8421 11.6839 16.6051 12 17.4008 12C18.1964 12 18.9595 11.6839 19.5221 11.1213C20.0847 10.5587 20.4008 9.7956 20.4008 8.99995C20.4008 8.2043 20.0847 7.44124 19.5221 6.87863C18.9595 6.31602 18.1964 5.99995 17.4008 5.99995Z" fill="#4E72D1"/>
</g>
</svg>
