<svg width="87" height="32" viewBox="0 0 87 32" fill="none" xmlns="http://www.w3.org/2000/svg">
<path d="M5.988 25V10.084H0.24V7.72H14.244V10.084H8.496V25H5.988ZM14.4956 25L20.1116 7.72H23.7236L29.3396 25H26.7356L21.5636 9.232H22.2116L17.0996 25H14.4956ZM17.4116 21.1V18.748H26.4356V21.1H17.4116ZM30.0525 25L35.9445 16.252L30.2085 7.72H33.2805L37.4925 14.128L41.6805 7.72H44.7645L39.0285 16.252L44.9085 25H41.8365L37.4925 18.388L33.1365 25H30.0525ZM47.2526 25V22.348H49.9046V25H47.2526ZM53.6878 25V7.72H56.2318L64.7398 20.56V7.72H67.2838V25H64.7398L56.2318 12.148V25H53.6878ZM77.7011 25.36C76.5411 25.36 75.4731 25.16 74.4971 24.76C73.5211 24.352 72.6731 23.76 71.9531 22.984C71.2331 22.208 70.6731 21.264 70.2731 20.152C69.8731 19.04 69.6731 17.776 69.6731 16.36C69.6731 14.496 70.0131 12.896 70.6931 11.56C71.3731 10.216 72.3171 9.184 73.5251 8.464C74.7331 7.736 76.1251 7.372 77.7011 7.372C79.7331 7.372 81.3531 7.844 82.5611 8.788C83.7771 9.732 84.6051 11.036 85.0451 12.7L82.5011 13.156C82.1491 12.124 81.5811 11.3 80.7971 10.684C80.0131 10.068 79.0291 9.756 77.8451 9.748C76.6211 9.74 75.6011 10.012 74.7851 10.564C73.9771 11.116 73.3691 11.892 72.9611 12.892C72.5531 13.884 72.3451 15.04 72.3371 16.36C72.3291 17.68 72.5291 18.836 72.9371 19.828C73.3451 20.812 73.9571 21.58 74.7731 22.132C75.5971 22.684 76.6211 22.964 77.8451 22.972C78.8291 22.988 79.6731 22.808 80.3771 22.432C81.0891 22.048 81.6531 21.488 82.0691 20.752C82.4851 20.016 82.7531 19.112 82.8731 18.04H79.5131V16.024H85.5371C85.5531 16.168 85.5651 16.36 85.5731 16.6C85.5811 16.832 85.5851 16.98 85.5851 17.044C85.5851 18.644 85.2771 20.072 84.6611 21.328C84.0451 22.584 83.1491 23.572 81.9731 24.292C80.7971 25.004 79.3731 25.36 77.7011 25.36Z" fill="url(#paint0_linear_2600_2589)"/>
<defs>
<linearGradient id="paint0_linear_2600_2589" x1="3.10714" y1="11" x2="71.5581" y2="41.5397" gradientUnits="userSpaceOnUse">
<stop stop-color="#B4CD93"/>
<stop offset="1" stop-color="#427A5B"/>
</linearGradient>
</defs>
</svg>
