<svg width="3" height="12" viewBox="0 0 3 12" fill="none" xmlns="http://www.w3.org/2000/svg">
<path d="M1.33301 9.33333C1.59822 9.33333 1.85258 9.43869 2.04011 9.62623C2.22765 9.81376 2.33301 10.0681 2.33301 10.3333C2.33301 10.5985 2.22765 10.8529 2.04011 11.0404C1.85258 11.228 1.59822 11.3333 1.33301 11.3333C1.06779 11.3333 0.813437 11.228 0.625901 11.0404C0.438364 10.8529 0.333008 10.5985 0.333008 10.3333C0.333008 10.0681 0.438364 9.81376 0.625901 9.62623C0.813437 9.43869 1.06779 9.33333 1.33301 9.33333ZM1.33301 4.66667C1.59822 4.66667 1.85258 4.77202 2.04011 4.95956C2.22765 5.1471 2.33301 5.40145 2.33301 5.66667C2.33301 5.93188 2.22765 6.18624 2.04011 6.37377C1.85258 6.56131 1.59822 6.66667 1.33301 6.66667C1.06779 6.66667 0.813437 6.56131 0.625901 6.37377C0.438364 6.18624 0.333008 5.93188 0.333008 5.66667C0.333008 5.40145 0.438364 5.1471 0.625901 4.95956C0.813437 4.77202 1.06779 4.66667 1.33301 4.66667ZM1.33301 0C1.59822 0 1.85258 0.105357 2.04011 0.292893C2.22765 0.48043 2.33301 0.734783 2.33301 1C2.33301 1.26522 2.22765 1.51957 2.04011 1.70711C1.85258 1.89464 1.59822 2 1.33301 2C1.06779 2 0.813437 1.89464 0.625901 1.70711C0.438364 1.51957 0.333008 1.26522 0.333008 1C0.333008 0.734783 0.438364 0.48043 0.625901 0.292893C0.813437 0.105357 1.06779 0 1.33301 0Z" fill="#667085"/>
</svg>
