<svg width="67" height="67" viewBox="0 0 67 67" fill="none" xmlns="http://www.w3.org/2000/svg">
<g id="Fingerprint-f">
<g id="Vector">
<path d="M33.5002 6.28125C26.2856 6.29508 19.3704 9.16721 14.2689 14.2687C9.16737 19.3702 6.29525 26.2854 6.28142 33.5C6.28318 36.1118 5.84067 38.7049 4.97282 41.1684C4.7879 41.696 4.81891 42.2753 5.0591 42.7802C5.29929 43.2851 5.7292 43.6746 6.25524 43.8641C6.47495 43.9354 6.70473 43.9707 6.93571 43.9688C7.36932 43.9687 7.7925 43.8357 8.14816 43.5877C8.50383 43.3396 8.77488 42.9885 8.92478 42.5816C9.94927 39.6635 10.4714 36.5927 10.4689 33.5C10.4689 27.3917 12.8954 21.5336 17.2146 17.2144C21.5338 12.8953 27.3919 10.4688 33.5002 10.4688C39.6084 10.4688 45.4665 12.8953 49.7857 17.2144C54.1049 21.5336 56.5314 27.3917 56.5314 33.5C56.5302 38.2882 56.0657 43.065 55.1443 47.7637C55.0437 48.3078 55.1598 48.8697 55.4679 49.3294C55.776 49.7891 56.2516 50.1101 56.7931 50.2238H57.2119C57.6941 50.2265 58.162 50.0605 58.5348 49.7547C58.9076 49.4488 59.1617 49.0223 59.2533 48.5488C60.225 43.5914 60.7158 38.5518 60.7189 33.5C60.712 26.2833 57.8421 19.3641 52.7391 14.2611C47.6361 9.15809 40.7169 6.28818 33.5002 6.28125Z" fill="#C3C3C3"/>
<path d="M24.3401 22.0628C24.7739 21.7158 25.0521 21.2106 25.1134 20.6584C25.1748 20.1063 25.0143 19.5523 24.6672 19.1185C24.3202 18.6847 23.815 18.4065 23.2628 18.3451C22.7106 18.2838 22.1567 18.4443 21.7229 18.7914C19.5122 20.5516 17.7283 22.789 16.5046 25.3361C15.2809 27.8832 14.6491 30.6741 14.6565 33.5C14.6719 38.3501 13.5515 43.1364 11.385 47.4757C11.1468 47.9733 11.1119 48.5442 11.2879 49.0671C11.4638 49.59 11.8366 50.0237 12.3272 50.2761C12.62 50.4202 12.9431 50.492 13.2694 50.4855C13.659 50.4852 14.0409 50.3776 14.3734 50.1745C14.7058 49.9713 14.9758 49.6805 15.1538 49.3339C17.588 44.411 18.851 38.9919 18.844 33.5C18.8427 31.3033 19.3361 29.1345 20.2875 27.1545C21.239 25.1746 22.6241 23.4343 24.3401 22.0628Z" fill="#C3C3C3"/>
<path d="M33.5003 31.4062C32.945 31.4062 32.4124 31.6268 32.0198 32.0195C31.6271 32.4121 31.4065 32.9447 31.4065 33.5C31.4155 41.6584 29.3437 49.6844 25.387 56.8191C25.1245 57.3095 25.0651 57.8833 25.2218 58.4169C25.3785 58.9506 25.7386 59.4013 26.2245 59.6719C26.5268 59.846 26.8701 59.9363 27.219 59.9336C27.5923 59.9343 27.959 59.8352 28.2811 59.6465C28.6032 59.4578 28.8691 59.1865 29.051 58.8605C33.348 51.0989 35.5996 42.3717 35.594 33.5C35.594 32.9447 35.3734 32.4121 34.9808 32.0195C34.5881 31.6268 34.0556 31.4062 33.5003 31.4062Z" fill="#C3C3C3"/>
<path d="M33.5002 23.0312C30.7259 23.0382 28.0671 24.1433 26.1053 26.1051C24.1436 28.0669 23.0384 30.7256 23.0315 33.5C23.0315 34.0553 23.2521 34.5879 23.6447 34.9805C24.0374 35.3732 24.5699 35.5938 25.1252 35.5938C25.6805 35.5938 26.2131 35.3732 26.6057 34.9805C26.9984 34.5879 27.219 34.0553 27.219 33.5C27.219 31.8341 27.8807 30.2364 29.0587 29.0585C30.2367 27.8805 31.8343 27.2188 33.5002 27.2188C35.1661 27.2188 36.7638 27.8805 37.9417 29.0585C39.1197 30.2364 39.7815 31.8341 39.7815 33.5C39.8022 41.8248 37.9694 50.0497 34.4162 57.5781C34.2966 57.8271 34.2275 58.0973 34.2128 58.3732C34.1981 58.649 34.2381 58.925 34.3305 59.1854C34.423 59.4457 34.566 59.6851 34.7514 59.8899C34.9368 60.0947 35.1609 60.2607 35.4108 60.3785C35.6912 60.5016 35.9944 60.5641 36.3006 60.5617C36.7002 60.5615 37.0915 60.4483 37.4295 60.2353C37.7676 60.0223 38.0385 59.7181 38.2112 59.3578C42.0268 51.273 43.9936 42.4399 43.969 33.5C43.9621 30.7256 42.8569 28.0669 40.8951 26.1051C38.9333 24.1433 36.2746 23.0382 33.5002 23.0312Z" fill="#C3C3C3"/>
<path d="M24.7065 39.8336C24.4383 39.7763 24.1613 39.773 23.8918 39.8238C23.6223 39.8747 23.3655 39.9786 23.1366 40.1296C22.9076 40.2807 22.711 40.4757 22.5582 40.7035C22.4053 40.9312 22.2993 41.1871 22.2463 41.4562C21.3827 45.638 19.8635 49.657 17.7448 53.3644C17.4688 53.8438 17.3938 54.4128 17.536 54.9473C17.6782 55.4818 18.0261 55.9383 18.5038 56.2172C18.8227 56.4002 19.1829 56.4992 19.5506 56.505C19.9159 56.4986 20.2734 56.3991 20.5894 56.2159C20.9054 56.0327 21.1695 55.7719 21.3565 55.4582C23.7305 51.3751 25.4108 46.9266 26.3291 42.2937C26.3864 42.0255 26.3897 41.7485 26.3389 41.479C26.288 41.2095 26.1841 40.9528 26.0331 40.7238C25.882 40.4948 25.687 40.2982 25.4592 40.1454C25.2315 39.9925 24.9756 39.8865 24.7065 39.8336Z" fill="#C3C3C3"/>
<path d="M33.5003 14.6562C32.7125 14.6564 31.9256 14.7089 31.1448 14.8133C30.8531 14.822 30.5663 14.8916 30.303 15.0176C30.0397 15.1437 29.8057 15.3234 29.616 15.5452C29.4262 15.767 29.285 16.0261 29.2013 16.3057C29.1176 16.5854 29.0933 16.8794 29.1299 17.169C29.1666 17.4586 29.2634 17.7374 29.4141 17.9873C29.5649 18.2373 29.7662 18.453 30.0053 18.6206C30.2443 18.7881 30.5157 18.9038 30.8021 18.9603C31.0885 19.0168 31.3835 19.0127 31.6683 18.9484C32.2702 18.8961 32.8983 18.8438 33.5003 18.8438C37.3874 18.8438 41.1152 20.3879 43.8638 23.1365C46.6124 25.885 48.1565 29.6129 48.1565 33.5C48.1621 36.2122 47.996 38.922 47.6593 41.6133C47.6227 41.8851 47.6405 42.1615 47.7117 42.4264C47.783 42.6913 47.9063 42.9394 48.0743 43.1562C48.2424 43.373 48.4519 43.5541 48.6907 43.6892C48.9295 43.8242 49.1927 43.9103 49.4651 43.9426H49.7269C50.2381 43.941 50.7316 43.7547 51.1163 43.4181C51.5011 43.0814 51.7512 42.6171 51.8206 42.1105C52.1652 39.2445 52.34 36.3605 52.344 33.4738C52.3302 28.4828 50.3396 23.7006 46.808 20.1738C43.2763 16.6471 38.4913 14.6632 33.5003 14.6562Z" fill="#C3C3C3"/>
<path d="M48.6536 48.2348C48.3889 48.1641 48.1128 48.1466 47.8414 48.1835C47.5699 48.2204 47.3084 48.3109 47.0722 48.4497C46.836 48.5885 46.6298 48.7728 46.4654 48.9921C46.3011 49.2113 46.1819 49.4609 46.1149 49.7266C45.7224 51.2184 45.2774 52.7102 44.8064 54.1758C44.7162 54.4352 44.6786 54.7099 44.6958 54.9839C44.713 55.2579 44.7846 55.5258 44.9064 55.7719C45.0282 56.018 45.1978 56.2373 45.4053 56.4171C45.6128 56.5969 45.854 56.7336 46.1149 56.8192C46.3342 56.8923 46.5643 56.9277 46.7954 56.9239C47.2295 56.9242 47.6528 56.7879 48.0051 56.5342C48.3574 56.2805 48.6209 55.9224 48.7583 55.5106C49.2817 53.9403 49.7528 52.37 50.1716 50.7735C50.3063 50.2356 50.2222 49.6662 49.9376 49.1902C49.653 48.7143 49.1912 48.3707 48.6536 48.2348Z" fill="#C3C3C3"/>
</g>
</g>
</svg>
