<svg width="67" height="67" viewBox="0 0 67 67" fill="none" xmlns="http://www.w3.org/2000/svg">
<path fill-rule="evenodd" clip-rule="evenodd" d="M33.5 6.28125C33.5 6.28125 39.0362 6.28125 44.0954 8.42109C44.0954 8.42109 48.9804 10.4873 52.7466 14.2534C52.7466 14.2534 56.5127 18.0196 58.5789 22.9046C58.5789 22.9046 60.7188 27.9638 60.7188 33.5C60.7188 33.5 60.7187 39.0362 58.5789 44.0954C58.5789 44.0954 56.5127 48.9804 52.7466 52.7466C52.7466 52.7466 48.9804 56.5127 44.0954 58.5789C44.0954 58.5789 39.0362 60.7188 33.5 60.7188C33.5 60.7188 27.9638 60.7188 22.9046 58.5789C22.9046 58.5789 18.0196 56.5127 14.2534 52.7466C14.2534 52.7466 10.4873 48.9804 8.42109 44.0954C8.42109 44.0954 6.28125 39.0362 6.28125 33.5C6.28125 33.5 6.28125 27.9638 8.4211 22.9046C8.4211 22.9046 10.4873 18.0196 14.2534 14.2534C14.2534 14.2534 18.0196 10.4873 22.9046 8.42109C22.9046 8.42109 27.9637 6.28125 33.5 6.28125ZM33.5 10.4687C33.5 10.4687 28.8129 10.4687 24.5358 12.2778C24.5358 12.2778 20.4031 14.0258 17.2144 17.2144C17.2144 17.2144 14.0258 20.4031 12.2778 24.5358C12.2778 24.5358 10.4688 28.8129 10.4688 33.5C10.4688 33.5 10.4688 38.1871 12.2778 42.4642C12.2778 42.4642 14.0258 46.5969 17.2144 49.7855C17.2144 49.7855 20.4031 52.9742 24.5358 54.7222C24.5358 54.7222 28.8129 56.5312 33.5 56.5312C33.5 56.5312 38.1871 56.5313 42.4642 54.7222C42.4642 54.7222 46.5969 52.9742 49.7856 49.7855C49.7856 49.7855 52.9742 46.5969 54.7222 42.4642C54.7222 42.4642 56.5312 38.1871 56.5312 33.5C56.5312 33.5 56.5313 28.8129 54.7222 24.5358C54.7222 24.5358 52.9742 20.4031 49.7856 17.2144C49.7856 17.2144 46.5969 14.0258 42.4642 12.2778C42.4642 12.2778 38.1871 10.4688 33.5 10.4687Z" fill="#4E72D1"/>
<path d="M27.2188 28.2656C27.2188 30 25.8125 31.4062 24.0781 31.4062C22.3437 31.4062 20.9375 30 20.9375 28.2656C20.9375 26.5312 22.3437 25.125 24.0781 25.125C25.8125 25.125 27.2188 26.5312 27.2188 28.2656Z" fill="#4E72D1"/>
<path d="M46.0625 28.2656C46.0625 30 44.6563 31.4062 42.9219 31.4062C41.1875 31.4062 39.7812 30 39.7812 28.2656C39.7812 26.5312 41.1875 25.125 42.9219 25.125C44.6563 25.125 46.0625 26.5312 46.0625 28.2656Z" fill="#4E72D1"/>
<path d="M24.4237 38.7308C24.049 38.0854 23.3588 37.6875 22.6125 37.6875C22.5785 37.6875 22.5445 37.6883 22.5105 37.69C22.1763 37.7063 21.8508 37.8025 21.5614 37.9704C20.916 38.3451 20.5187 39.035 20.5187 39.7812C20.5187 39.8153 20.5196 39.8492 20.5212 39.8832C20.5375 40.2174 20.6337 40.5429 20.8017 40.8323C22.772 44.2269 26.1735 46.1855 26.1735 46.1855C29.5749 48.1441 33.5 48.1441 33.5 48.1441C37.425 48.1441 40.8265 46.1855 40.8265 46.1855C44.2279 44.2269 46.1983 40.8323 46.1983 40.8323C46.3836 40.513 46.4812 40.1504 46.4812 39.7812C46.4812 39.7442 46.4802 39.7071 46.4783 39.6701C46.4408 38.9644 46.0498 38.3252 45.4385 37.9704C45.1193 37.7851 44.7567 37.6875 44.3875 37.6875L44.3546 37.6878C44.1843 37.6904 44.0149 37.7139 43.8503 37.7576C43.3136 37.9001 42.8554 38.2499 42.5767 38.7302L42.5755 38.7323C41.1672 41.1572 38.7369 42.5566 38.7369 42.5566C36.3056 43.9566 33.5 43.9566 33.5 43.9566C30.6944 43.9566 28.263 42.5566 28.263 42.5566C25.832 41.1568 24.4237 38.7308 24.4237 38.7308Z" fill="#4E72D1"/>
</svg>
